G04 EAGLE Gerber RS-274X export*
G75*
%MOMM*%
%FSLAX34Y34*%
%LPD*%
%INTop Copper*%
%IPPOS*%
%AMOC8*
5,1,8,0,0,1.08239X$1,22.5*%
G01*
%ADD10C,0.254000*%
%ADD11R,1.100000X1.000000*%
%ADD12R,1.000000X1.100000*%
%ADD13R,1.981200X0.558800*%
%ADD14R,1.400000X1.900000*%
%ADD15R,0.600000X1.200000*%
%ADD16C,1.524000*%
%ADD17C,0.705600*%
%ADD18C,0.609600*%

G36*
X177791Y2048D02*
X177791Y2048D01*
X177910Y2055D01*
X177948Y2068D01*
X177989Y2073D01*
X178099Y2116D01*
X178212Y2153D01*
X178247Y2175D01*
X178284Y2190D01*
X178380Y2259D01*
X178481Y2323D01*
X178509Y2353D01*
X178542Y2376D01*
X178618Y2468D01*
X178699Y2555D01*
X178719Y2590D01*
X178744Y2621D01*
X178795Y2729D01*
X178853Y2833D01*
X178863Y2873D01*
X178880Y2909D01*
X178902Y3026D01*
X178932Y3141D01*
X178936Y3201D01*
X178940Y3221D01*
X178938Y3242D01*
X178942Y3302D01*
X178942Y60801D01*
X178925Y60938D01*
X178912Y61077D01*
X178905Y61096D01*
X178902Y61116D01*
X178851Y61245D01*
X178804Y61376D01*
X178793Y61393D01*
X178785Y61412D01*
X178704Y61524D01*
X178626Y61639D01*
X178610Y61653D01*
X178599Y61669D01*
X178491Y61758D01*
X178387Y61850D01*
X178369Y61859D01*
X178354Y61872D01*
X178228Y61931D01*
X178104Y61995D01*
X178084Y61999D01*
X178066Y62008D01*
X177930Y62034D01*
X177794Y62064D01*
X177773Y62064D01*
X177754Y62067D01*
X177615Y62059D01*
X177476Y62055D01*
X177456Y62049D01*
X177436Y62048D01*
X177304Y62005D01*
X177170Y61966D01*
X177153Y61956D01*
X177134Y61950D01*
X177016Y61875D01*
X176896Y61805D01*
X176875Y61786D01*
X176865Y61779D01*
X176851Y61764D01*
X176776Y61698D01*
X174616Y59539D01*
X172608Y57530D01*
X138208Y57530D01*
X138110Y57518D01*
X138011Y57515D01*
X137953Y57498D01*
X137893Y57490D01*
X137801Y57454D01*
X137706Y57426D01*
X137653Y57396D01*
X137597Y57373D01*
X137517Y57315D01*
X137432Y57265D01*
X137356Y57199D01*
X137340Y57187D01*
X137332Y57177D01*
X137311Y57159D01*
X126991Y46839D01*
X126931Y46761D01*
X126863Y46689D01*
X126834Y46636D01*
X126797Y46588D01*
X126757Y46497D01*
X126709Y46410D01*
X126694Y46352D01*
X126670Y46296D01*
X126655Y46198D01*
X126630Y46102D01*
X126624Y46002D01*
X126620Y45982D01*
X126622Y45970D01*
X126620Y45942D01*
X126620Y42609D01*
X126623Y42579D01*
X126621Y42550D01*
X126640Y42439D01*
X126642Y42412D01*
X126646Y42399D01*
X126660Y42293D01*
X126670Y42266D01*
X126675Y42237D01*
X126729Y42118D01*
X126777Y41997D01*
X126794Y41974D01*
X126806Y41947D01*
X126887Y41845D01*
X126963Y41740D01*
X126986Y41721D01*
X127005Y41698D01*
X127108Y41620D01*
X127208Y41537D01*
X127235Y41525D01*
X127259Y41507D01*
X127403Y41436D01*
X129005Y40773D01*
X131578Y38200D01*
X132970Y34839D01*
X132970Y15961D01*
X131578Y12600D01*
X129005Y10027D01*
X125644Y8635D01*
X122006Y8635D01*
X118645Y10027D01*
X116072Y12600D01*
X114680Y15961D01*
X114680Y34839D01*
X116072Y38200D01*
X118645Y40773D01*
X120247Y41436D01*
X120272Y41451D01*
X120300Y41460D01*
X120410Y41529D01*
X120523Y41594D01*
X120544Y41614D01*
X120569Y41630D01*
X120658Y41725D01*
X120751Y41815D01*
X120767Y41840D01*
X120787Y41862D01*
X120850Y41975D01*
X120918Y42086D01*
X120926Y42114D01*
X120941Y42140D01*
X120973Y42266D01*
X121011Y42390D01*
X121013Y42419D01*
X121020Y42448D01*
X121030Y42609D01*
X121030Y48783D01*
X123039Y50791D01*
X132437Y60190D01*
X132522Y60299D01*
X132611Y60406D01*
X132620Y60425D01*
X132632Y60441D01*
X132688Y60569D01*
X132747Y60694D01*
X132750Y60714D01*
X132758Y60733D01*
X132780Y60871D01*
X132806Y61007D01*
X132805Y61027D01*
X132808Y61047D01*
X132795Y61186D01*
X132787Y61324D01*
X132780Y61343D01*
X132779Y61363D01*
X132731Y61495D01*
X132689Y61626D01*
X132678Y61644D01*
X132671Y61663D01*
X132593Y61777D01*
X132518Y61895D01*
X132504Y61909D01*
X132492Y61926D01*
X132388Y62018D01*
X132287Y62113D01*
X132269Y62123D01*
X132254Y62136D01*
X132130Y62200D01*
X132008Y62267D01*
X131989Y62272D01*
X131971Y62281D01*
X131835Y62311D01*
X131700Y62346D01*
X131672Y62348D01*
X131660Y62351D01*
X131640Y62350D01*
X131540Y62356D01*
X115700Y62356D01*
X114548Y63509D01*
X114470Y63569D01*
X114398Y63637D01*
X114345Y63666D01*
X114297Y63703D01*
X114206Y63743D01*
X114119Y63791D01*
X114061Y63806D01*
X114005Y63830D01*
X113907Y63845D01*
X113811Y63870D01*
X113711Y63876D01*
X113691Y63880D01*
X113679Y63878D01*
X113651Y63880D01*
X103617Y63880D01*
X102093Y65405D01*
X102053Y65436D01*
X102020Y65472D01*
X101928Y65533D01*
X101841Y65600D01*
X101796Y65620D01*
X101754Y65647D01*
X101650Y65683D01*
X101549Y65726D01*
X101500Y65734D01*
X101453Y65750D01*
X101344Y65759D01*
X101235Y65776D01*
X101186Y65772D01*
X101136Y65775D01*
X101028Y65757D01*
X100919Y65746D01*
X100872Y65730D01*
X100823Y65721D01*
X100723Y65676D01*
X100619Y65639D01*
X100578Y65611D01*
X100533Y65591D01*
X100447Y65522D01*
X100356Y65460D01*
X100323Y65423D01*
X100285Y65392D01*
X100219Y65304D01*
X100146Y65222D01*
X100123Y65178D01*
X100093Y65138D01*
X100022Y64993D01*
X99534Y63813D01*
X98112Y62391D01*
X96255Y61622D01*
X94245Y61622D01*
X92388Y62391D01*
X91271Y63509D01*
X91193Y63569D01*
X91121Y63637D01*
X91067Y63666D01*
X91020Y63703D01*
X90929Y63743D01*
X90842Y63791D01*
X90783Y63806D01*
X90728Y63830D01*
X90630Y63845D01*
X90534Y63870D01*
X90434Y63876D01*
X90414Y63880D01*
X90401Y63878D01*
X90373Y63880D01*
X89549Y63880D01*
X89451Y63868D01*
X89352Y63865D01*
X89294Y63848D01*
X89234Y63840D01*
X89142Y63804D01*
X89047Y63776D01*
X88994Y63746D01*
X88938Y63723D01*
X88858Y63665D01*
X88773Y63615D01*
X88697Y63549D01*
X88681Y63537D01*
X88673Y63527D01*
X88652Y63509D01*
X87500Y62356D01*
X78867Y62356D01*
X78749Y62341D01*
X78630Y62334D01*
X78592Y62321D01*
X78551Y62316D01*
X78441Y62273D01*
X78328Y62236D01*
X78293Y62214D01*
X78256Y62199D01*
X78160Y62130D01*
X78059Y62066D01*
X78031Y62036D01*
X77998Y62013D01*
X77922Y61921D01*
X77841Y61834D01*
X77821Y61799D01*
X77796Y61768D01*
X77745Y61660D01*
X77687Y61556D01*
X77677Y61516D01*
X77660Y61480D01*
X77638Y61363D01*
X77608Y61248D01*
X77604Y61188D01*
X77600Y61168D01*
X77602Y61147D01*
X77598Y61087D01*
X77598Y41872D01*
X77601Y41843D01*
X77599Y41813D01*
X77621Y41685D01*
X77638Y41557D01*
X77648Y41529D01*
X77654Y41500D01*
X77707Y41381D01*
X77755Y41261D01*
X77772Y41237D01*
X77784Y41210D01*
X77865Y41109D01*
X77941Y41004D01*
X77964Y40985D01*
X77983Y40962D01*
X78086Y40884D01*
X78130Y40847D01*
X80778Y38200D01*
X82170Y34839D01*
X82170Y15961D01*
X80778Y12600D01*
X78205Y10027D01*
X74844Y8635D01*
X71206Y8635D01*
X67845Y10027D01*
X65272Y12600D01*
X63880Y15961D01*
X63880Y34839D01*
X65272Y38200D01*
X67909Y40836D01*
X67945Y40857D01*
X67966Y40878D01*
X67991Y40893D01*
X68080Y40988D01*
X68173Y41078D01*
X68189Y41103D01*
X68209Y41125D01*
X68272Y41239D01*
X68340Y41349D01*
X68348Y41378D01*
X68363Y41404D01*
X68395Y41529D01*
X68433Y41653D01*
X68435Y41683D01*
X68442Y41711D01*
X68452Y41872D01*
X68452Y61087D01*
X68437Y61205D01*
X68430Y61324D01*
X68417Y61362D01*
X68412Y61403D01*
X68369Y61513D01*
X68332Y61626D01*
X68310Y61661D01*
X68295Y61698D01*
X68226Y61794D01*
X68162Y61895D01*
X68132Y61923D01*
X68109Y61956D01*
X68017Y62032D01*
X67930Y62113D01*
X67895Y62133D01*
X67864Y62158D01*
X67756Y62209D01*
X67652Y62267D01*
X67612Y62277D01*
X67576Y62294D01*
X67459Y62316D01*
X67344Y62346D01*
X67284Y62350D01*
X67264Y62354D01*
X67243Y62352D01*
X67183Y62356D01*
X66424Y62356D01*
X65531Y63249D01*
X65531Y70101D01*
X66424Y70994D01*
X87500Y70994D01*
X88652Y69841D01*
X88730Y69781D01*
X88802Y69713D01*
X88855Y69684D01*
X88903Y69647D01*
X88994Y69607D01*
X89081Y69559D01*
X89139Y69544D01*
X89195Y69520D01*
X89293Y69505D01*
X89389Y69480D01*
X89489Y69474D01*
X89509Y69470D01*
X89521Y69472D01*
X89549Y69470D01*
X90373Y69470D01*
X90472Y69482D01*
X90571Y69485D01*
X90629Y69502D01*
X90689Y69510D01*
X90781Y69546D01*
X90876Y69574D01*
X90928Y69604D01*
X90985Y69627D01*
X91065Y69685D01*
X91150Y69735D01*
X91225Y69801D01*
X91242Y69813D01*
X91250Y69823D01*
X91271Y69841D01*
X92388Y70959D01*
X93568Y71447D01*
X93612Y71472D01*
X93658Y71489D01*
X93749Y71551D01*
X93845Y71605D01*
X93880Y71640D01*
X93921Y71667D01*
X93994Y71750D01*
X94073Y71826D01*
X94099Y71869D01*
X94132Y71906D01*
X94182Y72004D01*
X94239Y72097D01*
X94254Y72145D01*
X94276Y72189D01*
X94301Y72296D01*
X94333Y72401D01*
X94335Y72451D01*
X94346Y72499D01*
X94343Y72609D01*
X94348Y72719D01*
X94338Y72768D01*
X94336Y72817D01*
X94306Y72923D01*
X94284Y73030D01*
X94262Y73075D01*
X94248Y73123D01*
X94192Y73218D01*
X94144Y73316D01*
X94112Y73354D01*
X94086Y73397D01*
X93980Y73518D01*
X93547Y73951D01*
X93469Y74011D01*
X93397Y74079D01*
X93344Y74108D01*
X93296Y74145D01*
X93205Y74185D01*
X93118Y74233D01*
X93060Y74248D01*
X93004Y74272D01*
X92906Y74287D01*
X92810Y74312D01*
X92710Y74318D01*
X92690Y74322D01*
X92678Y74320D01*
X92650Y74322D01*
X91070Y74322D01*
X89177Y75106D01*
X89088Y75185D01*
X89052Y75203D01*
X89020Y75228D01*
X88911Y75275D01*
X88805Y75329D01*
X88765Y75338D01*
X88728Y75354D01*
X88610Y75373D01*
X88494Y75399D01*
X88454Y75398D01*
X88414Y75404D01*
X88295Y75393D01*
X88177Y75389D01*
X88138Y75378D01*
X88097Y75374D01*
X87985Y75334D01*
X87871Y75301D01*
X87836Y75280D01*
X87798Y75267D01*
X87700Y75200D01*
X87597Y75139D01*
X87552Y75100D01*
X87535Y75088D01*
X87522Y75073D01*
X87503Y75056D01*
X66424Y75056D01*
X65531Y75949D01*
X65531Y82801D01*
X66424Y83694D01*
X72898Y83694D01*
X73016Y83709D01*
X73135Y83716D01*
X73173Y83729D01*
X73214Y83734D01*
X73324Y83777D01*
X73437Y83814D01*
X73472Y83836D01*
X73509Y83851D01*
X73605Y83920D01*
X73706Y83984D01*
X73734Y84014D01*
X73767Y84037D01*
X73843Y84129D01*
X73924Y84216D01*
X73944Y84251D01*
X73969Y84282D01*
X74020Y84390D01*
X74078Y84494D01*
X74088Y84534D01*
X74105Y84570D01*
X74127Y84687D01*
X74157Y84802D01*
X74161Y84862D01*
X74165Y84882D01*
X74163Y84903D01*
X74167Y84963D01*
X74167Y86487D01*
X74152Y86605D01*
X74145Y86724D01*
X74132Y86762D01*
X74127Y86803D01*
X74084Y86913D01*
X74047Y87026D01*
X74025Y87061D01*
X74010Y87098D01*
X73941Y87194D01*
X73877Y87295D01*
X73847Y87323D01*
X73824Y87356D01*
X73732Y87432D01*
X73645Y87513D01*
X73610Y87533D01*
X73579Y87558D01*
X73471Y87609D01*
X73367Y87667D01*
X73327Y87677D01*
X73291Y87694D01*
X73174Y87716D01*
X73059Y87746D01*
X72999Y87750D01*
X72979Y87754D01*
X72958Y87752D01*
X72898Y87756D01*
X66424Y87756D01*
X65531Y88649D01*
X65531Y92415D01*
X65514Y92553D01*
X65501Y92691D01*
X65494Y92710D01*
X65491Y92730D01*
X65440Y92860D01*
X65393Y92990D01*
X65382Y93007D01*
X65374Y93026D01*
X65293Y93138D01*
X65215Y93253D01*
X65199Y93267D01*
X65188Y93283D01*
X65080Y93372D01*
X64976Y93464D01*
X64958Y93473D01*
X64943Y93486D01*
X64817Y93545D01*
X64693Y93609D01*
X64673Y93613D01*
X64655Y93622D01*
X64518Y93648D01*
X64383Y93678D01*
X64362Y93678D01*
X64343Y93681D01*
X64204Y93673D01*
X64065Y93669D01*
X64045Y93663D01*
X64025Y93662D01*
X63893Y93619D01*
X63759Y93580D01*
X63742Y93570D01*
X63723Y93564D01*
X63605Y93489D01*
X63485Y93419D01*
X63464Y93400D01*
X63454Y93393D01*
X63440Y93379D01*
X63364Y93312D01*
X62698Y92645D01*
X60642Y90590D01*
X60549Y90553D01*
X60436Y90516D01*
X60402Y90495D01*
X60364Y90480D01*
X60268Y90410D01*
X60167Y90346D01*
X60139Y90317D01*
X60107Y90293D01*
X60031Y90201D01*
X59949Y90114D01*
X59930Y90079D01*
X59904Y90048D01*
X59853Y89940D01*
X59796Y89836D01*
X59786Y89797D01*
X59768Y89760D01*
X59746Y89643D01*
X59716Y89528D01*
X59712Y89468D01*
X59709Y89448D01*
X59710Y89427D01*
X59706Y89367D01*
X59706Y87300D01*
X58774Y86368D01*
X58697Y86268D01*
X58615Y86173D01*
X58600Y86143D01*
X58579Y86116D01*
X58529Y86001D01*
X58473Y85889D01*
X58466Y85856D01*
X58453Y85825D01*
X58433Y85700D01*
X58407Y85578D01*
X58408Y85544D01*
X58403Y85511D01*
X58415Y85385D01*
X58420Y85260D01*
X58430Y85227D01*
X58433Y85194D01*
X58475Y85075D01*
X58511Y84955D01*
X58529Y84926D01*
X58540Y84895D01*
X58611Y84790D01*
X58676Y84683D01*
X58700Y84659D01*
X58719Y84631D01*
X58813Y84548D01*
X58903Y84460D01*
X58943Y84433D01*
X58957Y84421D01*
X58977Y84411D01*
X59037Y84371D01*
X59741Y83964D01*
X60214Y83491D01*
X60549Y82912D01*
X60722Y82266D01*
X60722Y78931D01*
X55681Y78931D01*
X55681Y85137D01*
X55666Y85255D01*
X55658Y85374D01*
X55646Y85413D01*
X55641Y85453D01*
X55597Y85564D01*
X55560Y85677D01*
X55539Y85711D01*
X55524Y85748D01*
X55454Y85845D01*
X55390Y85945D01*
X55361Y85973D01*
X55337Y86006D01*
X55245Y86082D01*
X55158Y86163D01*
X55123Y86183D01*
X55092Y86209D01*
X54984Y86259D01*
X54880Y86317D01*
X54841Y86327D01*
X54804Y86344D01*
X54687Y86367D01*
X54572Y86396D01*
X54512Y86400D01*
X54492Y86404D01*
X54471Y86403D01*
X54411Y86407D01*
X51951Y86407D01*
X51833Y86392D01*
X51714Y86384D01*
X51676Y86372D01*
X51636Y86367D01*
X51525Y86323D01*
X51412Y86286D01*
X51378Y86265D01*
X51340Y86250D01*
X51244Y86180D01*
X51143Y86116D01*
X51115Y86087D01*
X51083Y86063D01*
X51007Y85971D01*
X50925Y85884D01*
X50906Y85849D01*
X50880Y85818D01*
X50829Y85710D01*
X50772Y85606D01*
X50762Y85567D01*
X50744Y85530D01*
X50722Y85413D01*
X50692Y85298D01*
X50688Y85238D01*
X50685Y85218D01*
X50686Y85197D01*
X50682Y85137D01*
X50682Y78931D01*
X45641Y78931D01*
X45641Y79899D01*
X45623Y80037D01*
X45610Y80175D01*
X45603Y80194D01*
X45601Y80214D01*
X45550Y80344D01*
X45502Y80475D01*
X45491Y80491D01*
X45484Y80510D01*
X45402Y80623D01*
X45324Y80738D01*
X45309Y80751D01*
X45297Y80768D01*
X45189Y80856D01*
X45085Y80948D01*
X45067Y80957D01*
X45052Y80970D01*
X44926Y81029D01*
X44802Y81093D01*
X44782Y81097D01*
X44764Y81106D01*
X44628Y81132D01*
X44492Y81162D01*
X44472Y81162D01*
X44452Y81166D01*
X44313Y81157D01*
X44174Y81153D01*
X44155Y81147D01*
X44134Y81146D01*
X44002Y81103D01*
X43869Y81064D01*
X43851Y81054D01*
X43832Y81048D01*
X43714Y80974D01*
X43595Y80903D01*
X43573Y80884D01*
X43563Y80878D01*
X43549Y80863D01*
X43474Y80796D01*
X43121Y80444D01*
X43061Y80366D01*
X42993Y80294D01*
X42964Y80241D01*
X42927Y80193D01*
X42887Y80102D01*
X42839Y80015D01*
X42824Y79957D01*
X42800Y79901D01*
X42785Y79803D01*
X42760Y79707D01*
X42754Y79607D01*
X42750Y79587D01*
X42752Y79575D01*
X42750Y79547D01*
X42750Y63118D01*
X41857Y62225D01*
X26593Y62225D01*
X25700Y63118D01*
X25700Y83382D01*
X26593Y84275D01*
X38522Y84275D01*
X38620Y84287D01*
X38719Y84290D01*
X38777Y84307D01*
X38837Y84315D01*
X38929Y84351D01*
X39024Y84379D01*
X39077Y84409D01*
X39133Y84432D01*
X39213Y84490D01*
X39298Y84540D01*
X39374Y84606D01*
X39390Y84618D01*
X39398Y84628D01*
X39419Y84646D01*
X46285Y91512D01*
X46345Y91590D01*
X46413Y91662D01*
X46443Y91715D01*
X46480Y91763D01*
X46519Y91854D01*
X46567Y91941D01*
X46582Y92000D01*
X46606Y92055D01*
X46622Y92153D01*
X46646Y92249D01*
X46653Y92349D01*
X46656Y92369D01*
X46655Y92382D01*
X46657Y92410D01*
X46657Y99293D01*
X46644Y99392D01*
X46641Y99491D01*
X46624Y99549D01*
X46617Y99609D01*
X46580Y99701D01*
X46553Y99796D01*
X46522Y99848D01*
X46500Y99905D01*
X46442Y99985D01*
X46391Y100070D01*
X46325Y100145D01*
X46313Y100162D01*
X46303Y100170D01*
X46285Y100191D01*
X46148Y100328D01*
X45814Y100907D01*
X45641Y101553D01*
X45641Y104888D01*
X50682Y104888D01*
X50682Y101725D01*
X50697Y101607D01*
X50704Y101488D01*
X50717Y101450D01*
X50722Y101410D01*
X50766Y101299D01*
X50802Y101186D01*
X50824Y101152D01*
X50839Y101114D01*
X50909Y101018D01*
X50972Y100917D01*
X51002Y100889D01*
X51026Y100857D01*
X51117Y100781D01*
X51204Y100699D01*
X51239Y100680D01*
X51271Y100654D01*
X51378Y100603D01*
X51483Y100546D01*
X51522Y100536D01*
X51558Y100518D01*
X51675Y100496D01*
X51791Y100466D01*
X51851Y100462D01*
X51871Y100459D01*
X51891Y100460D01*
X51951Y100456D01*
X54411Y100456D01*
X54529Y100471D01*
X54648Y100478D01*
X54687Y100491D01*
X54727Y100496D01*
X54838Y100540D01*
X54951Y100576D01*
X54985Y100598D01*
X55022Y100613D01*
X55119Y100683D01*
X55219Y100746D01*
X55247Y100776D01*
X55280Y100800D01*
X55356Y100891D01*
X55437Y100978D01*
X55457Y101014D01*
X55483Y101045D01*
X55533Y101152D01*
X55591Y101257D01*
X55601Y101296D01*
X55618Y101332D01*
X55641Y101449D01*
X55670Y101565D01*
X55674Y101625D01*
X55678Y101645D01*
X55677Y101665D01*
X55681Y101725D01*
X55681Y104888D01*
X59436Y104888D01*
X59554Y104903D01*
X59673Y104911D01*
X59711Y104923D01*
X59752Y104928D01*
X59862Y104972D01*
X59975Y105009D01*
X60010Y105030D01*
X60047Y105045D01*
X60143Y105115D01*
X60244Y105179D01*
X60272Y105208D01*
X60305Y105232D01*
X60381Y105324D01*
X60462Y105410D01*
X60482Y105446D01*
X60507Y105477D01*
X60558Y105585D01*
X60616Y105689D01*
X60626Y105728D01*
X60643Y105765D01*
X60665Y105881D01*
X60695Y105997D01*
X60699Y106057D01*
X60703Y106077D01*
X60701Y106097D01*
X60705Y106157D01*
X60705Y108618D01*
X60690Y108736D01*
X60683Y108854D01*
X60670Y108893D01*
X60665Y108933D01*
X60622Y109044D01*
X60585Y109157D01*
X60563Y109191D01*
X60548Y109229D01*
X60479Y109325D01*
X60415Y109426D01*
X60385Y109453D01*
X60362Y109486D01*
X60270Y109562D01*
X60183Y109644D01*
X60148Y109663D01*
X60117Y109689D01*
X60009Y109740D01*
X59905Y109797D01*
X59865Y109807D01*
X59829Y109824D01*
X59712Y109847D01*
X59597Y109877D01*
X59537Y109880D01*
X59517Y109884D01*
X59496Y109883D01*
X59436Y109887D01*
X55681Y109887D01*
X55681Y116094D01*
X55666Y116212D01*
X55658Y116330D01*
X55646Y116369D01*
X55641Y116409D01*
X55597Y116520D01*
X55560Y116633D01*
X55539Y116667D01*
X55524Y116705D01*
X55454Y116801D01*
X55390Y116902D01*
X55361Y116929D01*
X55337Y116962D01*
X55245Y117038D01*
X55158Y117120D01*
X55123Y117139D01*
X55092Y117165D01*
X54984Y117216D01*
X54880Y117273D01*
X54841Y117283D01*
X54804Y117300D01*
X54687Y117323D01*
X54572Y117353D01*
X54512Y117356D01*
X54492Y117360D01*
X54471Y117359D01*
X54411Y117363D01*
X51951Y117363D01*
X51833Y117348D01*
X51714Y117340D01*
X51676Y117328D01*
X51636Y117323D01*
X51525Y117279D01*
X51412Y117242D01*
X51378Y117221D01*
X51340Y117206D01*
X51244Y117136D01*
X51143Y117072D01*
X51115Y117043D01*
X51083Y117019D01*
X51007Y116927D01*
X50925Y116841D01*
X50906Y116805D01*
X50880Y116774D01*
X50829Y116666D01*
X50772Y116562D01*
X50762Y116523D01*
X50744Y116486D01*
X50722Y116370D01*
X50692Y116254D01*
X50688Y116194D01*
X50685Y116174D01*
X50686Y116154D01*
X50682Y116094D01*
X50682Y109887D01*
X45641Y109887D01*
X45641Y113222D01*
X45814Y113868D01*
X46148Y114447D01*
X46621Y114921D01*
X47326Y115327D01*
X47426Y115403D01*
X47530Y115474D01*
X47552Y115499D01*
X47579Y115519D01*
X47657Y115618D01*
X47740Y115712D01*
X47756Y115742D01*
X47777Y115769D01*
X47828Y115884D01*
X47885Y115995D01*
X47892Y116028D01*
X47906Y116059D01*
X47927Y116183D01*
X47954Y116306D01*
X47953Y116339D01*
X47959Y116373D01*
X47949Y116498D01*
X47945Y116624D01*
X47935Y116656D01*
X47933Y116690D01*
X47891Y116808D01*
X47856Y116929D01*
X47839Y116958D01*
X47828Y116990D01*
X47759Y117095D01*
X47695Y117203D01*
X47662Y117240D01*
X47652Y117255D01*
X47636Y117270D01*
X47588Y117324D01*
X46657Y118256D01*
X46657Y126111D01*
X46642Y126229D01*
X46634Y126348D01*
X46622Y126386D01*
X46617Y126427D01*
X46573Y126537D01*
X46536Y126650D01*
X46515Y126685D01*
X46500Y126722D01*
X46430Y126818D01*
X46366Y126919D01*
X46337Y126947D01*
X46313Y126980D01*
X46221Y127056D01*
X46134Y127137D01*
X46099Y127157D01*
X46068Y127182D01*
X45960Y127233D01*
X45856Y127291D01*
X45817Y127301D01*
X45780Y127318D01*
X45663Y127340D01*
X45548Y127370D01*
X45488Y127374D01*
X45468Y127378D01*
X45447Y127376D01*
X45387Y127380D01*
X44019Y127380D01*
X43901Y127365D01*
X43782Y127358D01*
X43744Y127345D01*
X43703Y127340D01*
X43593Y127297D01*
X43480Y127260D01*
X43445Y127238D01*
X43408Y127223D01*
X43312Y127154D01*
X43211Y127090D01*
X43183Y127060D01*
X43150Y127037D01*
X43074Y126945D01*
X42993Y126858D01*
X42973Y126823D01*
X42948Y126792D01*
X42897Y126684D01*
X42839Y126580D01*
X42829Y126540D01*
X42812Y126504D01*
X42790Y126387D01*
X42760Y126272D01*
X42756Y126212D01*
X42752Y126192D01*
X42754Y126171D01*
X42750Y126111D01*
X42750Y107118D01*
X41857Y106225D01*
X26593Y106225D01*
X25700Y107118D01*
X25700Y126111D01*
X25685Y126229D01*
X25678Y126348D01*
X25665Y126386D01*
X25660Y126427D01*
X25617Y126537D01*
X25580Y126650D01*
X25558Y126685D01*
X25543Y126722D01*
X25474Y126818D01*
X25410Y126919D01*
X25380Y126947D01*
X25357Y126980D01*
X25265Y127056D01*
X25178Y127137D01*
X25143Y127157D01*
X25112Y127182D01*
X25004Y127233D01*
X24900Y127291D01*
X24860Y127301D01*
X24824Y127318D01*
X24707Y127340D01*
X24592Y127370D01*
X24532Y127374D01*
X24512Y127378D01*
X24491Y127376D01*
X24431Y127380D01*
X23908Y127380D01*
X23810Y127368D01*
X23711Y127365D01*
X23653Y127348D01*
X23593Y127340D01*
X23501Y127304D01*
X23406Y127276D01*
X23353Y127246D01*
X23297Y127223D01*
X23217Y127165D01*
X23132Y127115D01*
X23056Y127049D01*
X23040Y127037D01*
X23032Y127027D01*
X23011Y127009D01*
X19121Y123119D01*
X19061Y123041D01*
X18993Y122969D01*
X18964Y122916D01*
X18927Y122868D01*
X18887Y122777D01*
X18839Y122690D01*
X18824Y122632D01*
X18800Y122576D01*
X18785Y122478D01*
X18760Y122382D01*
X18754Y122282D01*
X18750Y122262D01*
X18752Y122250D01*
X18750Y122222D01*
X18750Y107118D01*
X17857Y106225D01*
X3302Y106225D01*
X3184Y106210D01*
X3065Y106203D01*
X3027Y106190D01*
X2986Y106185D01*
X2876Y106142D01*
X2763Y106105D01*
X2728Y106083D01*
X2691Y106068D01*
X2595Y105999D01*
X2494Y105935D01*
X2466Y105905D01*
X2433Y105882D01*
X2357Y105790D01*
X2276Y105703D01*
X2256Y105668D01*
X2231Y105637D01*
X2180Y105529D01*
X2122Y105425D01*
X2112Y105385D01*
X2095Y105349D01*
X2073Y105232D01*
X2043Y105117D01*
X2039Y105057D01*
X2035Y105037D01*
X2037Y105016D01*
X2033Y104956D01*
X2033Y85544D01*
X2048Y85426D01*
X2055Y85307D01*
X2068Y85269D01*
X2073Y85228D01*
X2116Y85118D01*
X2153Y85005D01*
X2175Y84970D01*
X2190Y84933D01*
X2259Y84837D01*
X2323Y84736D01*
X2353Y84708D01*
X2376Y84675D01*
X2468Y84599D01*
X2555Y84518D01*
X2590Y84498D01*
X2621Y84473D01*
X2729Y84422D01*
X2833Y84364D01*
X2873Y84354D01*
X2909Y84337D01*
X3026Y84315D01*
X3141Y84285D01*
X3201Y84281D01*
X3221Y84277D01*
X3242Y84279D01*
X3302Y84275D01*
X17857Y84275D01*
X18750Y83382D01*
X18750Y63118D01*
X17857Y62225D01*
X3302Y62225D01*
X3184Y62210D01*
X3065Y62203D01*
X3027Y62190D01*
X2986Y62185D01*
X2876Y62142D01*
X2763Y62105D01*
X2728Y62083D01*
X2691Y62068D01*
X2595Y61999D01*
X2494Y61935D01*
X2466Y61905D01*
X2433Y61882D01*
X2357Y61790D01*
X2276Y61703D01*
X2256Y61668D01*
X2231Y61637D01*
X2180Y61529D01*
X2122Y61425D01*
X2112Y61385D01*
X2095Y61349D01*
X2073Y61232D01*
X2043Y61117D01*
X2039Y61057D01*
X2035Y61037D01*
X2037Y61016D01*
X2033Y60956D01*
X2033Y3302D01*
X2048Y3184D01*
X2055Y3065D01*
X2068Y3027D01*
X2073Y2986D01*
X2116Y2876D01*
X2153Y2763D01*
X2175Y2728D01*
X2190Y2691D01*
X2259Y2595D01*
X2323Y2494D01*
X2353Y2466D01*
X2376Y2433D01*
X2468Y2357D01*
X2555Y2276D01*
X2590Y2256D01*
X2621Y2231D01*
X2729Y2180D01*
X2833Y2122D01*
X2873Y2112D01*
X2909Y2095D01*
X3026Y2073D01*
X3141Y2043D01*
X3201Y2039D01*
X3221Y2035D01*
X3242Y2037D01*
X3302Y2033D01*
X177673Y2033D01*
X177791Y2048D01*
G37*
G36*
X169865Y63132D02*
X169865Y63132D01*
X169964Y63135D01*
X170022Y63152D01*
X170082Y63160D01*
X170174Y63196D01*
X170269Y63224D01*
X170322Y63254D01*
X170378Y63277D01*
X170458Y63335D01*
X170543Y63385D01*
X170619Y63451D01*
X170635Y63463D01*
X170643Y63473D01*
X170664Y63491D01*
X173665Y66493D01*
X173750Y66602D01*
X173839Y66709D01*
X173848Y66728D01*
X173860Y66744D01*
X173916Y66872D01*
X173975Y66997D01*
X173978Y67017D01*
X173986Y67036D01*
X174008Y67174D01*
X174034Y67310D01*
X174033Y67330D01*
X174036Y67350D01*
X174023Y67489D01*
X174015Y67627D01*
X174008Y67646D01*
X174007Y67666D01*
X173959Y67798D01*
X173917Y67929D01*
X173906Y67947D01*
X173899Y67966D01*
X173821Y68081D01*
X173746Y68198D01*
X173732Y68212D01*
X173720Y68229D01*
X173616Y68321D01*
X173515Y68416D01*
X173497Y68426D01*
X173482Y68439D01*
X173358Y68503D01*
X173236Y68570D01*
X173217Y68575D01*
X173199Y68584D01*
X173063Y68614D01*
X172928Y68649D01*
X172900Y68651D01*
X172888Y68654D01*
X172868Y68653D01*
X172768Y68659D01*
X169749Y68659D01*
X169749Y73701D01*
X173339Y73701D01*
X173457Y73716D01*
X173576Y73723D01*
X173614Y73735D01*
X173655Y73741D01*
X173765Y73784D01*
X173879Y73821D01*
X173913Y73843D01*
X173950Y73858D01*
X174047Y73927D01*
X174147Y73991D01*
X174175Y74021D01*
X174208Y74044D01*
X174284Y74136D01*
X174365Y74223D01*
X174385Y74258D01*
X174411Y74289D01*
X174461Y74397D01*
X174519Y74501D01*
X174529Y74541D01*
X174546Y74577D01*
X174568Y74694D01*
X174598Y74809D01*
X174602Y74869D01*
X174606Y74889D01*
X174605Y74910D01*
X174608Y74970D01*
X174608Y77430D01*
X174593Y77548D01*
X174586Y77667D01*
X174574Y77705D01*
X174569Y77746D01*
X174525Y77856D01*
X174488Y77969D01*
X174466Y78004D01*
X174452Y78041D01*
X174382Y78137D01*
X174318Y78238D01*
X174288Y78266D01*
X174265Y78299D01*
X174173Y78375D01*
X174086Y78456D01*
X174051Y78476D01*
X174020Y78501D01*
X173912Y78552D01*
X173808Y78610D01*
X173769Y78620D01*
X173732Y78637D01*
X173615Y78659D01*
X173500Y78689D01*
X173440Y78693D01*
X173420Y78697D01*
X173399Y78695D01*
X173339Y78699D01*
X169749Y78699D01*
X169749Y84481D01*
X169734Y84599D01*
X169727Y84718D01*
X169714Y84756D01*
X169709Y84797D01*
X169666Y84907D01*
X169629Y85020D01*
X169607Y85055D01*
X169592Y85092D01*
X169523Y85188D01*
X169459Y85289D01*
X169429Y85317D01*
X169406Y85350D01*
X169314Y85426D01*
X169227Y85507D01*
X169192Y85527D01*
X169161Y85552D01*
X169053Y85603D01*
X168949Y85661D01*
X168909Y85671D01*
X168873Y85688D01*
X168756Y85710D01*
X168641Y85740D01*
X168581Y85744D01*
X168561Y85748D01*
X168540Y85746D01*
X168480Y85750D01*
X166020Y85750D01*
X165902Y85735D01*
X165783Y85728D01*
X165745Y85715D01*
X165704Y85710D01*
X165594Y85667D01*
X165481Y85630D01*
X165446Y85608D01*
X165409Y85593D01*
X165312Y85524D01*
X165212Y85460D01*
X165184Y85430D01*
X165151Y85407D01*
X165075Y85315D01*
X164994Y85228D01*
X164974Y85193D01*
X164949Y85162D01*
X164898Y85054D01*
X164840Y84950D01*
X164830Y84910D01*
X164813Y84874D01*
X164791Y84757D01*
X164761Y84642D01*
X164757Y84582D01*
X164753Y84562D01*
X164755Y84541D01*
X164751Y84481D01*
X164751Y78699D01*
X158544Y78699D01*
X158426Y78684D01*
X158307Y78677D01*
X158269Y78664D01*
X158228Y78659D01*
X158118Y78616D01*
X158005Y78579D01*
X157970Y78557D01*
X157933Y78542D01*
X157837Y78473D01*
X157736Y78409D01*
X157708Y78379D01*
X157675Y78356D01*
X157599Y78264D01*
X157518Y78177D01*
X157498Y78142D01*
X157473Y78111D01*
X157422Y78003D01*
X157364Y77899D01*
X157354Y77859D01*
X157337Y77823D01*
X157315Y77706D01*
X157285Y77591D01*
X157281Y77531D01*
X157277Y77511D01*
X157279Y77490D01*
X157275Y77430D01*
X157275Y74970D01*
X157290Y74852D01*
X157297Y74733D01*
X157310Y74695D01*
X157315Y74654D01*
X157358Y74544D01*
X157395Y74431D01*
X157417Y74396D01*
X157432Y74359D01*
X157501Y74262D01*
X157565Y74162D01*
X157595Y74134D01*
X157618Y74101D01*
X157710Y74025D01*
X157797Y73944D01*
X157832Y73924D01*
X157863Y73899D01*
X157971Y73848D01*
X158075Y73790D01*
X158115Y73780D01*
X158151Y73763D01*
X158268Y73741D01*
X158383Y73711D01*
X158443Y73707D01*
X158463Y73703D01*
X158484Y73705D01*
X158544Y73701D01*
X164751Y73701D01*
X164751Y68659D01*
X161416Y68659D01*
X160769Y68832D01*
X160190Y69167D01*
X159717Y69640D01*
X159310Y70344D01*
X159234Y70444D01*
X159164Y70549D01*
X159138Y70571D01*
X159118Y70598D01*
X159020Y70676D01*
X158925Y70759D01*
X158895Y70774D01*
X158869Y70795D01*
X158754Y70846D01*
X158642Y70904D01*
X158609Y70911D01*
X158578Y70925D01*
X158454Y70946D01*
X158332Y70973D01*
X158298Y70972D01*
X158265Y70978D01*
X158139Y70967D01*
X158014Y70964D01*
X157981Y70954D01*
X157948Y70951D01*
X157829Y70910D01*
X157708Y70875D01*
X157679Y70858D01*
X157647Y70847D01*
X157543Y70777D01*
X157434Y70714D01*
X157398Y70681D01*
X157382Y70671D01*
X157368Y70655D01*
X157314Y70607D01*
X156382Y69675D01*
X144118Y69675D01*
X143225Y70568D01*
X143225Y81832D01*
X144118Y82725D01*
X145186Y82725D01*
X145304Y82740D01*
X145423Y82747D01*
X145461Y82760D01*
X145502Y82765D01*
X145612Y82808D01*
X145725Y82845D01*
X145760Y82867D01*
X145797Y82882D01*
X145893Y82951D01*
X145994Y83015D01*
X146022Y83045D01*
X146055Y83068D01*
X146131Y83160D01*
X146212Y83247D01*
X146232Y83282D01*
X146257Y83313D01*
X146308Y83421D01*
X146366Y83525D01*
X146376Y83565D01*
X146393Y83601D01*
X146415Y83718D01*
X146445Y83833D01*
X146449Y83893D01*
X146453Y83913D01*
X146451Y83934D01*
X146455Y83994D01*
X146455Y84481D01*
X146440Y84599D01*
X146433Y84718D01*
X146420Y84756D01*
X146415Y84797D01*
X146372Y84907D01*
X146335Y85020D01*
X146313Y85055D01*
X146298Y85092D01*
X146229Y85188D01*
X146165Y85289D01*
X146135Y85317D01*
X146112Y85350D01*
X146020Y85426D01*
X145933Y85507D01*
X145898Y85527D01*
X145867Y85552D01*
X145772Y85597D01*
X144725Y86643D01*
X144725Y98447D01*
X144713Y98545D01*
X144710Y98644D01*
X144693Y98702D01*
X144685Y98762D01*
X144649Y98854D01*
X144621Y98949D01*
X144591Y99002D01*
X144568Y99058D01*
X144510Y99138D01*
X144460Y99223D01*
X144394Y99299D01*
X144382Y99315D01*
X144372Y99323D01*
X144354Y99344D01*
X139835Y103862D01*
X139726Y103947D01*
X139619Y104036D01*
X139600Y104045D01*
X139584Y104057D01*
X139456Y104113D01*
X139331Y104172D01*
X139311Y104175D01*
X139292Y104183D01*
X139154Y104205D01*
X139018Y104231D01*
X138998Y104230D01*
X138978Y104233D01*
X138839Y104220D01*
X138701Y104212D01*
X138682Y104205D01*
X138662Y104204D01*
X138530Y104156D01*
X138399Y104114D01*
X138381Y104103D01*
X138362Y104096D01*
X138247Y104018D01*
X138130Y103943D01*
X138116Y103929D01*
X138099Y103917D01*
X138007Y103813D01*
X137912Y103712D01*
X137902Y103694D01*
X137889Y103679D01*
X137825Y103555D01*
X137758Y103433D01*
X137753Y103414D01*
X137744Y103396D01*
X137714Y103260D01*
X137679Y103125D01*
X137677Y103097D01*
X137674Y103085D01*
X137675Y103065D01*
X137669Y102965D01*
X137669Y101349D01*
X136776Y100456D01*
X115700Y100456D01*
X114807Y101349D01*
X114807Y108201D01*
X115700Y109094D01*
X136430Y109094D01*
X136548Y109109D01*
X136667Y109116D01*
X136705Y109129D01*
X136745Y109134D01*
X136856Y109177D01*
X136969Y109214D01*
X137003Y109236D01*
X137041Y109251D01*
X137137Y109320D01*
X137238Y109384D01*
X137266Y109414D01*
X137298Y109437D01*
X137374Y109529D01*
X137456Y109616D01*
X137475Y109651D01*
X137501Y109682D01*
X137552Y109790D01*
X137609Y109894D01*
X137619Y109934D01*
X137637Y109970D01*
X137659Y110087D01*
X137689Y110202D01*
X137693Y110262D01*
X137696Y110282D01*
X137695Y110303D01*
X137699Y110363D01*
X137699Y111887D01*
X137684Y112005D01*
X137677Y112124D01*
X137664Y112162D01*
X137659Y112203D01*
X137615Y112313D01*
X137579Y112426D01*
X137557Y112461D01*
X137542Y112498D01*
X137472Y112594D01*
X137409Y112695D01*
X137379Y112723D01*
X137355Y112756D01*
X137264Y112832D01*
X137177Y112913D01*
X137141Y112933D01*
X137110Y112958D01*
X137003Y113009D01*
X136898Y113067D01*
X136859Y113077D01*
X136823Y113094D01*
X136706Y113116D01*
X136590Y113146D01*
X136530Y113150D01*
X136510Y113154D01*
X136490Y113152D01*
X136430Y113156D01*
X115700Y113156D01*
X114807Y114049D01*
X114807Y120901D01*
X115700Y121794D01*
X136430Y121794D01*
X136548Y121809D01*
X136667Y121816D01*
X136705Y121829D01*
X136745Y121834D01*
X136856Y121877D01*
X136969Y121914D01*
X137003Y121936D01*
X137041Y121951D01*
X137137Y122020D01*
X137238Y122084D01*
X137266Y122114D01*
X137298Y122137D01*
X137374Y122229D01*
X137456Y122316D01*
X137475Y122351D01*
X137501Y122382D01*
X137552Y122490D01*
X137609Y122594D01*
X137619Y122634D01*
X137637Y122670D01*
X137659Y122787D01*
X137689Y122902D01*
X137693Y122962D01*
X137696Y122982D01*
X137695Y123003D01*
X137699Y123063D01*
X137699Y124587D01*
X137684Y124705D01*
X137677Y124824D01*
X137664Y124862D01*
X137659Y124903D01*
X137615Y125013D01*
X137579Y125126D01*
X137557Y125161D01*
X137542Y125198D01*
X137472Y125294D01*
X137409Y125395D01*
X137379Y125423D01*
X137355Y125456D01*
X137264Y125532D01*
X137177Y125613D01*
X137141Y125633D01*
X137110Y125658D01*
X137003Y125709D01*
X136898Y125767D01*
X136859Y125777D01*
X136823Y125794D01*
X136706Y125816D01*
X136590Y125846D01*
X136530Y125850D01*
X136510Y125854D01*
X136490Y125852D01*
X136430Y125856D01*
X115700Y125856D01*
X114807Y126749D01*
X114807Y133601D01*
X115700Y134494D01*
X136430Y134494D01*
X136548Y134509D01*
X136667Y134516D01*
X136705Y134529D01*
X136745Y134534D01*
X136856Y134577D01*
X136969Y134614D01*
X137003Y134636D01*
X137041Y134651D01*
X137137Y134720D01*
X137238Y134784D01*
X137266Y134814D01*
X137298Y134837D01*
X137374Y134929D01*
X137456Y135016D01*
X137475Y135051D01*
X137501Y135082D01*
X137552Y135190D01*
X137609Y135294D01*
X137619Y135334D01*
X137637Y135370D01*
X137659Y135487D01*
X137689Y135602D01*
X137693Y135662D01*
X137696Y135682D01*
X137695Y135703D01*
X137699Y135763D01*
X137699Y136271D01*
X137684Y136389D01*
X137677Y136508D01*
X137664Y136546D01*
X137659Y136587D01*
X137615Y136697D01*
X137579Y136810D01*
X137557Y136845D01*
X137542Y136882D01*
X137472Y136978D01*
X137409Y137079D01*
X137379Y137107D01*
X137355Y137140D01*
X137264Y137216D01*
X137177Y137297D01*
X137141Y137317D01*
X137110Y137342D01*
X137003Y137393D01*
X136898Y137451D01*
X136859Y137461D01*
X136823Y137478D01*
X136706Y137500D01*
X136590Y137530D01*
X136530Y137534D01*
X136510Y137538D01*
X136490Y137536D01*
X136430Y137540D01*
X127634Y137540D01*
X127634Y142748D01*
X127623Y142837D01*
X127624Y142842D01*
X127628Y142902D01*
X127632Y142922D01*
X127630Y142942D01*
X127634Y143002D01*
X127634Y148210D01*
X136430Y148210D01*
X136548Y148225D01*
X136667Y148232D01*
X136705Y148245D01*
X136745Y148250D01*
X136856Y148293D01*
X136969Y148330D01*
X137003Y148352D01*
X137041Y148367D01*
X137137Y148436D01*
X137238Y148500D01*
X137266Y148530D01*
X137298Y148553D01*
X137374Y148645D01*
X137456Y148732D01*
X137475Y148767D01*
X137501Y148798D01*
X137552Y148906D01*
X137609Y149010D01*
X137619Y149050D01*
X137637Y149086D01*
X137659Y149203D01*
X137689Y149318D01*
X137693Y149378D01*
X137696Y149398D01*
X137695Y149419D01*
X137699Y149479D01*
X137699Y153631D01*
X137684Y153749D01*
X137677Y153868D01*
X137664Y153906D01*
X137659Y153947D01*
X137615Y154057D01*
X137579Y154170D01*
X137557Y154205D01*
X137542Y154242D01*
X137472Y154338D01*
X137409Y154439D01*
X137379Y154467D01*
X137355Y154500D01*
X137264Y154576D01*
X137177Y154657D01*
X137141Y154677D01*
X137110Y154702D01*
X137003Y154753D01*
X136898Y154811D01*
X136859Y154821D01*
X136823Y154838D01*
X136706Y154860D01*
X136590Y154890D01*
X136530Y154894D01*
X136510Y154898D01*
X136490Y154896D01*
X136430Y154900D01*
X132250Y154900D01*
X131357Y155793D01*
X131357Y168057D01*
X132250Y168950D01*
X143513Y168950D01*
X144406Y168057D01*
X144406Y155793D01*
X143660Y155048D01*
X143600Y154969D01*
X143532Y154897D01*
X143502Y154844D01*
X143465Y154796D01*
X143426Y154705D01*
X143378Y154619D01*
X143363Y154560D01*
X143339Y154505D01*
X143323Y154407D01*
X143299Y154311D01*
X143292Y154211D01*
X143289Y154190D01*
X143290Y154178D01*
X143288Y154150D01*
X143288Y145335D01*
X143303Y145217D01*
X143311Y145098D01*
X143323Y145060D01*
X143328Y145019D01*
X143372Y144909D01*
X143409Y144796D01*
X143430Y144761D01*
X143445Y144724D01*
X143515Y144628D01*
X143579Y144527D01*
X143608Y144499D01*
X143632Y144466D01*
X143724Y144390D01*
X143811Y144309D01*
X143846Y144289D01*
X143877Y144264D01*
X143985Y144213D01*
X144089Y144155D01*
X144128Y144145D01*
X144165Y144128D01*
X144282Y144106D01*
X144397Y144076D01*
X144457Y144072D01*
X144477Y144068D01*
X144498Y144070D01*
X144558Y144066D01*
X147751Y144066D01*
X147751Y139024D01*
X144558Y139024D01*
X144440Y139009D01*
X144321Y139002D01*
X144282Y138989D01*
X144242Y138984D01*
X144131Y138941D01*
X144018Y138904D01*
X143984Y138882D01*
X143947Y138867D01*
X143850Y138798D01*
X143750Y138734D01*
X143722Y138704D01*
X143689Y138681D01*
X143613Y138589D01*
X143532Y138502D01*
X143512Y138467D01*
X143486Y138436D01*
X143436Y138328D01*
X143378Y138224D01*
X143368Y138184D01*
X143351Y138148D01*
X143328Y138031D01*
X143299Y137916D01*
X143295Y137856D01*
X143291Y137836D01*
X143292Y137815D01*
X143288Y137755D01*
X143288Y135295D01*
X143303Y135177D01*
X143311Y135058D01*
X143323Y135020D01*
X143328Y134979D01*
X143372Y134869D01*
X143409Y134756D01*
X143430Y134721D01*
X143445Y134684D01*
X143515Y134587D01*
X143579Y134487D01*
X143608Y134459D01*
X143632Y134426D01*
X143724Y134350D01*
X143811Y134269D01*
X143846Y134249D01*
X143877Y134224D01*
X143985Y134173D01*
X144089Y134115D01*
X144128Y134105D01*
X144165Y134088D01*
X144282Y134066D01*
X144397Y134036D01*
X144457Y134032D01*
X144477Y134028D01*
X144498Y134030D01*
X144558Y134026D01*
X147751Y134026D01*
X147751Y128984D01*
X144558Y128984D01*
X144440Y128969D01*
X144321Y128962D01*
X144282Y128949D01*
X144242Y128944D01*
X144131Y128901D01*
X144018Y128864D01*
X143984Y128842D01*
X143947Y128827D01*
X143850Y128758D01*
X143750Y128694D01*
X143722Y128664D01*
X143689Y128641D01*
X143613Y128549D01*
X143532Y128462D01*
X143512Y128427D01*
X143486Y128396D01*
X143436Y128288D01*
X143378Y128184D01*
X143368Y128144D01*
X143351Y128108D01*
X143328Y127991D01*
X143299Y127876D01*
X143295Y127816D01*
X143291Y127796D01*
X143292Y127775D01*
X143291Y127769D01*
X143291Y127762D01*
X143288Y127715D01*
X143288Y124534D01*
X143306Y124396D01*
X143319Y124258D01*
X143326Y124239D01*
X143328Y124218D01*
X143380Y124089D01*
X143427Y123958D01*
X143438Y123942D01*
X143445Y123923D01*
X143527Y123810D01*
X143605Y123695D01*
X143620Y123682D01*
X143632Y123665D01*
X143740Y123576D01*
X143844Y123485D01*
X143862Y123476D01*
X143877Y123463D01*
X144003Y123403D01*
X144127Y123340D01*
X144147Y123336D01*
X144165Y123327D01*
X144301Y123301D01*
X144437Y123271D01*
X144457Y123271D01*
X144477Y123267D01*
X144616Y123276D01*
X144755Y123280D01*
X144774Y123286D01*
X144795Y123287D01*
X144927Y123330D01*
X145060Y123369D01*
X145078Y123379D01*
X145097Y123385D01*
X145215Y123459D01*
X145334Y123530D01*
X145356Y123549D01*
X145366Y123555D01*
X145380Y123570D01*
X145455Y123637D01*
X145618Y123800D01*
X153156Y123800D01*
X153254Y123812D01*
X153353Y123815D01*
X153411Y123832D01*
X153471Y123840D01*
X153563Y123876D01*
X153659Y123904D01*
X153711Y123934D01*
X153767Y123957D01*
X153847Y124015D01*
X153933Y124065D01*
X154008Y124131D01*
X154024Y124143D01*
X154032Y124153D01*
X154053Y124171D01*
X154190Y124308D01*
X154769Y124643D01*
X155416Y124816D01*
X157251Y124816D01*
X157251Y116505D01*
X157266Y116387D01*
X157273Y116268D01*
X157285Y116230D01*
X157291Y116190D01*
X157334Y116079D01*
X157371Y115966D01*
X157393Y115932D01*
X157408Y115894D01*
X157477Y115798D01*
X157541Y115697D01*
X157571Y115669D01*
X157594Y115637D01*
X157686Y115561D01*
X157773Y115479D01*
X157808Y115460D01*
X157839Y115434D01*
X157947Y115383D01*
X158051Y115326D01*
X158091Y115316D01*
X158127Y115298D01*
X158244Y115276D01*
X158359Y115246D01*
X158419Y115242D01*
X158439Y115239D01*
X158460Y115240D01*
X158520Y115236D01*
X158980Y115236D01*
X159098Y115251D01*
X159217Y115258D01*
X159255Y115271D01*
X159296Y115276D01*
X159406Y115320D01*
X159519Y115356D01*
X159554Y115378D01*
X159591Y115393D01*
X159687Y115463D01*
X159788Y115526D01*
X159816Y115556D01*
X159849Y115580D01*
X159925Y115671D01*
X160006Y115758D01*
X160026Y115793D01*
X160051Y115825D01*
X160102Y115932D01*
X160160Y116037D01*
X160170Y116076D01*
X160187Y116112D01*
X160209Y116229D01*
X160239Y116345D01*
X160243Y116405D01*
X160247Y116425D01*
X160245Y116445D01*
X160249Y116505D01*
X160249Y124816D01*
X162084Y124816D01*
X162731Y124643D01*
X163334Y124294D01*
X163398Y124245D01*
X163505Y124156D01*
X163524Y124147D01*
X163540Y124135D01*
X163667Y124079D01*
X163793Y124020D01*
X163813Y124016D01*
X163831Y124008D01*
X163969Y123987D01*
X164106Y123960D01*
X164126Y123962D01*
X164146Y123958D01*
X164284Y123972D01*
X164423Y123980D01*
X164442Y123986D01*
X164462Y123988D01*
X164593Y124035D01*
X164725Y124078D01*
X164742Y124089D01*
X164761Y124096D01*
X164877Y124174D01*
X164994Y124248D01*
X165008Y124263D01*
X165025Y124274D01*
X165117Y124379D01*
X165212Y124480D01*
X165222Y124498D01*
X165235Y124513D01*
X165298Y124637D01*
X165366Y124758D01*
X165371Y124778D01*
X165380Y124796D01*
X165410Y124931D01*
X165445Y125066D01*
X165447Y125094D01*
X165449Y125106D01*
X165449Y125126D01*
X165455Y125227D01*
X165455Y128731D01*
X165440Y128849D01*
X165433Y128968D01*
X165420Y129006D01*
X165415Y129047D01*
X165372Y129157D01*
X165335Y129270D01*
X165313Y129305D01*
X165298Y129342D01*
X165229Y129438D01*
X165165Y129539D01*
X165135Y129567D01*
X165112Y129600D01*
X165020Y129676D01*
X164933Y129757D01*
X164898Y129777D01*
X164867Y129802D01*
X164759Y129853D01*
X164655Y129911D01*
X164615Y129921D01*
X164579Y129938D01*
X164462Y129960D01*
X164347Y129990D01*
X164287Y129994D01*
X164267Y129998D01*
X164246Y129996D01*
X164186Y130000D01*
X161118Y130000D01*
X160186Y130932D01*
X160087Y131009D01*
X159992Y131091D01*
X159962Y131106D01*
X159935Y131127D01*
X159820Y131177D01*
X159707Y131233D01*
X159674Y131240D01*
X159643Y131254D01*
X159519Y131273D01*
X159396Y131299D01*
X159363Y131298D01*
X159329Y131303D01*
X159204Y131292D01*
X159078Y131286D01*
X159046Y131277D01*
X159013Y131274D01*
X158894Y131231D01*
X158774Y131195D01*
X158745Y131177D01*
X158713Y131166D01*
X158609Y131095D01*
X158502Y131030D01*
X158478Y131006D01*
X158450Y130987D01*
X158367Y130893D01*
X158279Y130803D01*
X158252Y130763D01*
X158240Y130749D01*
X158230Y130730D01*
X158190Y130669D01*
X157783Y129965D01*
X157310Y129492D01*
X156731Y129157D01*
X156084Y128984D01*
X152749Y128984D01*
X152749Y134026D01*
X158956Y134026D01*
X159074Y134041D01*
X159193Y134048D01*
X159231Y134060D01*
X159272Y134066D01*
X159382Y134109D01*
X159495Y134146D01*
X159530Y134168D01*
X159567Y134183D01*
X159663Y134252D01*
X159764Y134316D01*
X159792Y134346D01*
X159825Y134369D01*
X159901Y134461D01*
X159982Y134548D01*
X160002Y134583D01*
X160027Y134614D01*
X160078Y134722D01*
X160136Y134826D01*
X160146Y134865D01*
X160163Y134902D01*
X160185Y135019D01*
X160215Y135134D01*
X160219Y135194D01*
X160223Y135214D01*
X160222Y135221D01*
X160223Y135223D01*
X160222Y135239D01*
X160225Y135295D01*
X160225Y137755D01*
X160210Y137873D01*
X160203Y137992D01*
X160190Y138030D01*
X160185Y138071D01*
X160142Y138181D01*
X160105Y138294D01*
X160083Y138329D01*
X160068Y138366D01*
X159999Y138462D01*
X159935Y138563D01*
X159905Y138591D01*
X159882Y138624D01*
X159790Y138700D01*
X159703Y138781D01*
X159668Y138801D01*
X159637Y138826D01*
X159529Y138877D01*
X159425Y138935D01*
X159385Y138945D01*
X159349Y138962D01*
X159232Y138984D01*
X159117Y139014D01*
X159057Y139018D01*
X159037Y139022D01*
X159016Y139020D01*
X158956Y139024D01*
X152749Y139024D01*
X152749Y144066D01*
X156084Y144066D01*
X156731Y143893D01*
X157310Y143558D01*
X157783Y143085D01*
X158190Y142381D01*
X158266Y142281D01*
X158336Y142177D01*
X158362Y142154D01*
X158382Y142127D01*
X158481Y142049D01*
X158575Y141966D01*
X158605Y141951D01*
X158631Y141930D01*
X158746Y141879D01*
X158858Y141821D01*
X158891Y141814D01*
X158922Y141800D01*
X159046Y141779D01*
X159168Y141752D01*
X159202Y141753D01*
X159235Y141747D01*
X159361Y141758D01*
X159486Y141761D01*
X159519Y141771D01*
X159552Y141774D01*
X159671Y141815D01*
X159792Y141850D01*
X159821Y141867D01*
X159853Y141878D01*
X159957Y141947D01*
X160066Y142011D01*
X160102Y142044D01*
X160118Y142054D01*
X160132Y142070D01*
X160186Y142118D01*
X161118Y143050D01*
X164211Y143050D01*
X164329Y143065D01*
X164448Y143072D01*
X164486Y143085D01*
X164527Y143090D01*
X164637Y143133D01*
X164750Y143170D01*
X164785Y143192D01*
X164822Y143207D01*
X164918Y143276D01*
X165019Y143340D01*
X165047Y143370D01*
X165080Y143393D01*
X165156Y143485D01*
X165237Y143572D01*
X165257Y143607D01*
X165282Y143638D01*
X165333Y143746D01*
X165391Y143850D01*
X165401Y143890D01*
X165418Y143926D01*
X165440Y144043D01*
X165470Y144158D01*
X165474Y144218D01*
X165478Y144238D01*
X165476Y144259D01*
X165480Y144319D01*
X165480Y163417D01*
X165468Y163515D01*
X165465Y163614D01*
X165448Y163672D01*
X165440Y163732D01*
X165404Y163824D01*
X165376Y163919D01*
X165346Y163972D01*
X165323Y164028D01*
X165265Y164108D01*
X165215Y164193D01*
X165149Y164269D01*
X165137Y164285D01*
X165127Y164293D01*
X165109Y164314D01*
X138914Y190509D01*
X138836Y190569D01*
X138764Y190637D01*
X138711Y190666D01*
X138663Y190703D01*
X138572Y190743D01*
X138485Y190791D01*
X138427Y190806D01*
X138371Y190830D01*
X138273Y190845D01*
X138177Y190870D01*
X138077Y190876D01*
X138057Y190880D01*
X138045Y190878D01*
X138017Y190880D01*
X134239Y190880D01*
X134121Y190865D01*
X134002Y190858D01*
X133964Y190845D01*
X133923Y190840D01*
X133813Y190797D01*
X133700Y190760D01*
X133665Y190738D01*
X133628Y190723D01*
X133532Y190654D01*
X133431Y190590D01*
X133403Y190560D01*
X133370Y190537D01*
X133294Y190445D01*
X133213Y190358D01*
X133193Y190323D01*
X133168Y190292D01*
X133117Y190184D01*
X133059Y190080D01*
X133049Y190040D01*
X133032Y190004D01*
X133010Y189887D01*
X132980Y189772D01*
X132976Y189712D01*
X132972Y189692D01*
X132974Y189671D01*
X132970Y189611D01*
X132970Y184236D01*
X131578Y180875D01*
X129005Y178302D01*
X125644Y176910D01*
X122006Y176910D01*
X118645Y178302D01*
X116072Y180875D01*
X114680Y184236D01*
X114680Y203114D01*
X116072Y206475D01*
X118023Y208426D01*
X118108Y208535D01*
X118197Y208642D01*
X118205Y208661D01*
X118218Y208677D01*
X118273Y208805D01*
X118332Y208930D01*
X118336Y208950D01*
X118344Y208969D01*
X118366Y209107D01*
X118392Y209243D01*
X118391Y209263D01*
X118394Y209283D01*
X118381Y209422D01*
X118372Y209560D01*
X118366Y209579D01*
X118364Y209599D01*
X118317Y209731D01*
X118274Y209862D01*
X118264Y209880D01*
X118257Y209899D01*
X118179Y210014D01*
X118104Y210131D01*
X118089Y210145D01*
X118078Y210162D01*
X117974Y210254D01*
X117873Y210349D01*
X117855Y210359D01*
X117840Y210372D01*
X117716Y210436D01*
X117594Y210503D01*
X117575Y210508D01*
X117556Y210517D01*
X117421Y210547D01*
X117286Y210582D01*
X117258Y210584D01*
X117246Y210587D01*
X117226Y210586D01*
X117125Y210592D01*
X105125Y210592D01*
X104987Y210575D01*
X104848Y210562D01*
X104829Y210555D01*
X104809Y210552D01*
X104680Y210501D01*
X104549Y210454D01*
X104532Y210443D01*
X104513Y210435D01*
X104401Y210354D01*
X104286Y210276D01*
X104272Y210260D01*
X104256Y210249D01*
X104167Y210141D01*
X104075Y210037D01*
X104066Y210019D01*
X104053Y210004D01*
X103994Y209878D01*
X103931Y209754D01*
X103926Y209734D01*
X103918Y209716D01*
X103892Y209580D01*
X103861Y209444D01*
X103862Y209423D01*
X103858Y209404D01*
X103866Y209265D01*
X103871Y209126D01*
X103876Y209106D01*
X103878Y209086D01*
X103920Y208954D01*
X103959Y208820D01*
X103969Y208803D01*
X103976Y208784D01*
X104050Y208666D01*
X104121Y208546D01*
X104139Y208525D01*
X104146Y208515D01*
X104161Y208501D01*
X104227Y208426D01*
X106178Y206475D01*
X107570Y203114D01*
X107570Y184236D01*
X106178Y180875D01*
X103605Y178302D01*
X102003Y177639D01*
X101978Y177624D01*
X101950Y177615D01*
X101840Y177546D01*
X101727Y177481D01*
X101706Y177461D01*
X101681Y177445D01*
X101592Y177350D01*
X101499Y177260D01*
X101483Y177235D01*
X101463Y177213D01*
X101400Y177100D01*
X101332Y176989D01*
X101324Y176961D01*
X101309Y176935D01*
X101277Y176809D01*
X101239Y176685D01*
X101237Y176656D01*
X101230Y176627D01*
X101220Y176466D01*
X101220Y170219D01*
X101235Y170101D01*
X101242Y169982D01*
X101255Y169944D01*
X101260Y169903D01*
X101303Y169793D01*
X101340Y169680D01*
X101362Y169645D01*
X101377Y169608D01*
X101446Y169512D01*
X101510Y169411D01*
X101540Y169383D01*
X101563Y169350D01*
X101655Y169274D01*
X101742Y169193D01*
X101777Y169173D01*
X101808Y169148D01*
X101916Y169097D01*
X102020Y169039D01*
X102060Y169029D01*
X102096Y169012D01*
X102213Y168990D01*
X102328Y168960D01*
X102388Y168956D01*
X102408Y168952D01*
X102429Y168954D01*
X102489Y168950D01*
X106207Y168950D01*
X107100Y168057D01*
X107100Y165989D01*
X107115Y165871D01*
X107122Y165752D01*
X107135Y165714D01*
X107140Y165673D01*
X107183Y165563D01*
X107220Y165450D01*
X107242Y165415D01*
X107257Y165378D01*
X107326Y165282D01*
X107390Y165181D01*
X107420Y165153D01*
X107443Y165120D01*
X107535Y165044D01*
X107622Y164963D01*
X107657Y164943D01*
X107688Y164918D01*
X107796Y164867D01*
X107900Y164809D01*
X107940Y164799D01*
X107976Y164782D01*
X108093Y164760D01*
X108208Y164730D01*
X108268Y164726D01*
X108288Y164722D01*
X108309Y164724D01*
X108369Y164720D01*
X113087Y164720D01*
X113205Y164735D01*
X113324Y164742D01*
X113363Y164755D01*
X113403Y164760D01*
X113514Y164803D01*
X113627Y164840D01*
X113661Y164862D01*
X113698Y164877D01*
X113795Y164946D01*
X113895Y165010D01*
X113923Y165040D01*
X113956Y165063D01*
X114032Y165155D01*
X114113Y165242D01*
X114133Y165277D01*
X114159Y165308D01*
X114209Y165416D01*
X114267Y165520D01*
X114277Y165560D01*
X114294Y165596D01*
X114317Y165713D01*
X114346Y165828D01*
X114350Y165888D01*
X114354Y165908D01*
X114353Y165929D01*
X114357Y165989D01*
X114357Y168057D01*
X115250Y168950D01*
X126513Y168950D01*
X127406Y168057D01*
X127406Y155793D01*
X126513Y154900D01*
X115250Y154900D01*
X114357Y155793D01*
X114357Y157861D01*
X114342Y157979D01*
X114334Y158098D01*
X114322Y158136D01*
X114317Y158177D01*
X114273Y158287D01*
X114236Y158400D01*
X114215Y158435D01*
X114200Y158472D01*
X114130Y158568D01*
X114066Y158669D01*
X114037Y158697D01*
X114013Y158730D01*
X113921Y158806D01*
X113834Y158887D01*
X113799Y158907D01*
X113768Y158932D01*
X113660Y158983D01*
X113556Y159041D01*
X113517Y159051D01*
X113480Y159068D01*
X113363Y159090D01*
X113248Y159120D01*
X113188Y159124D01*
X113168Y159128D01*
X113147Y159126D01*
X113087Y159130D01*
X108369Y159130D01*
X108251Y159115D01*
X108132Y159108D01*
X108094Y159095D01*
X108053Y159090D01*
X107943Y159047D01*
X107830Y159010D01*
X107795Y158988D01*
X107758Y158973D01*
X107662Y158904D01*
X107561Y158840D01*
X107533Y158810D01*
X107500Y158787D01*
X107424Y158695D01*
X107343Y158608D01*
X107323Y158573D01*
X107298Y158542D01*
X107247Y158434D01*
X107189Y158330D01*
X107179Y158290D01*
X107162Y158254D01*
X107140Y158137D01*
X107110Y158022D01*
X107106Y157962D01*
X107102Y157942D01*
X107104Y157921D01*
X107100Y157861D01*
X107100Y155793D01*
X106207Y154900D01*
X97616Y154900D01*
X97479Y154883D01*
X97340Y154870D01*
X97321Y154863D01*
X97301Y154860D01*
X97172Y154809D01*
X97041Y154762D01*
X97024Y154751D01*
X97005Y154743D01*
X96893Y154662D01*
X96778Y154584D01*
X96764Y154568D01*
X96748Y154557D01*
X96659Y154449D01*
X96567Y154345D01*
X96558Y154327D01*
X96545Y154312D01*
X96486Y154186D01*
X96422Y154062D01*
X96418Y154042D01*
X96409Y154024D01*
X96383Y153888D01*
X96353Y153752D01*
X96353Y153731D01*
X96350Y153712D01*
X96358Y153573D01*
X96362Y153434D01*
X96368Y153414D01*
X96369Y153394D01*
X96412Y153262D01*
X96451Y153128D01*
X96461Y153111D01*
X96467Y153092D01*
X96542Y152974D01*
X96612Y152854D01*
X96631Y152833D01*
X96638Y152823D01*
X96653Y152809D01*
X96719Y152734D01*
X103973Y145479D01*
X105982Y143470D01*
X105982Y100505D01*
X105995Y100407D01*
X105998Y100308D01*
X106014Y100250D01*
X106022Y100190D01*
X106059Y100098D01*
X106086Y100003D01*
X106117Y99950D01*
X106139Y99894D01*
X106197Y99814D01*
X106248Y99729D01*
X106314Y99653D01*
X106326Y99637D01*
X106335Y99629D01*
X106354Y99608D01*
X110720Y95241D01*
X110799Y95181D01*
X110871Y95113D01*
X110924Y95084D01*
X110972Y95047D01*
X111062Y95007D01*
X111149Y94959D01*
X111208Y94944D01*
X111263Y94920D01*
X111361Y94905D01*
X111457Y94880D01*
X111557Y94874D01*
X111577Y94870D01*
X111590Y94872D01*
X111618Y94870D01*
X113651Y94870D01*
X113749Y94882D01*
X113848Y94885D01*
X113906Y94902D01*
X113966Y94910D01*
X114058Y94946D01*
X114153Y94974D01*
X114206Y95004D01*
X114262Y95027D01*
X114342Y95085D01*
X114427Y95135D01*
X114503Y95201D01*
X114519Y95213D01*
X114527Y95223D01*
X114548Y95241D01*
X115700Y96394D01*
X136776Y96394D01*
X137669Y95501D01*
X137669Y88649D01*
X136776Y87756D01*
X115700Y87756D01*
X114548Y88909D01*
X114470Y88969D01*
X114398Y89037D01*
X114345Y89066D01*
X114297Y89103D01*
X114206Y89143D01*
X114119Y89191D01*
X114061Y89206D01*
X114005Y89230D01*
X113907Y89245D01*
X113811Y89270D01*
X113711Y89276D01*
X113691Y89280D01*
X113679Y89278D01*
X113651Y89280D01*
X108777Y89280D01*
X101510Y96548D01*
X101454Y96590D01*
X101406Y96640D01*
X101329Y96687D01*
X101258Y96742D01*
X101194Y96770D01*
X101135Y96807D01*
X101049Y96833D01*
X100966Y96869D01*
X100897Y96880D01*
X100831Y96900D01*
X100741Y96905D01*
X100652Y96919D01*
X100583Y96912D01*
X100513Y96915D01*
X100425Y96897D01*
X100336Y96889D01*
X100270Y96865D01*
X100202Y96851D01*
X100121Y96812D01*
X100036Y96781D01*
X99979Y96742D01*
X99916Y96711D01*
X99848Y96653D01*
X99773Y96603D01*
X99727Y96550D01*
X99674Y96505D01*
X99622Y96432D01*
X99563Y96364D01*
X99531Y96302D01*
X99491Y96245D01*
X99459Y96161D01*
X99418Y96081D01*
X99403Y96013D01*
X99378Y95948D01*
X99368Y95858D01*
X99349Y95771D01*
X99351Y95701D01*
X99343Y95632D01*
X99355Y95543D01*
X99358Y95453D01*
X99378Y95386D01*
X99387Y95317D01*
X99439Y95164D01*
X100303Y93080D01*
X100303Y91500D01*
X100315Y91402D01*
X100318Y91303D01*
X100335Y91245D01*
X100343Y91185D01*
X100379Y91093D01*
X100407Y90998D01*
X100437Y90945D01*
X100460Y90889D01*
X100518Y90809D01*
X100568Y90724D01*
X100634Y90648D01*
X100646Y90632D01*
X100656Y90624D01*
X100674Y90603D01*
X108736Y82541D01*
X108814Y82481D01*
X108886Y82413D01*
X108939Y82384D01*
X108987Y82347D01*
X109078Y82307D01*
X109165Y82259D01*
X109223Y82244D01*
X109279Y82220D01*
X109377Y82205D01*
X109473Y82180D01*
X109573Y82174D01*
X109593Y82170D01*
X109605Y82172D01*
X109633Y82170D01*
X113651Y82170D01*
X113749Y82182D01*
X113848Y82185D01*
X113906Y82202D01*
X113966Y82210D01*
X114058Y82246D01*
X114153Y82274D01*
X114206Y82304D01*
X114262Y82327D01*
X114342Y82385D01*
X114427Y82435D01*
X114503Y82501D01*
X114519Y82513D01*
X114527Y82523D01*
X114548Y82541D01*
X115700Y83694D01*
X136776Y83694D01*
X137669Y82801D01*
X137669Y75949D01*
X136776Y75056D01*
X115700Y75056D01*
X114548Y76209D01*
X114470Y76269D01*
X114398Y76337D01*
X114345Y76366D01*
X114297Y76403D01*
X114206Y76443D01*
X114119Y76491D01*
X114061Y76506D01*
X114005Y76530D01*
X113907Y76545D01*
X113811Y76570D01*
X113711Y76576D01*
X113691Y76580D01*
X113679Y76578D01*
X113651Y76580D01*
X106792Y76580D01*
X96722Y86651D01*
X96644Y86711D01*
X96572Y86779D01*
X96519Y86808D01*
X96471Y86845D01*
X96380Y86885D01*
X96293Y86933D01*
X96235Y86948D01*
X96179Y86972D01*
X96081Y86987D01*
X95985Y87012D01*
X95885Y87018D01*
X95865Y87022D01*
X95853Y87020D01*
X95825Y87022D01*
X94245Y87022D01*
X92388Y87791D01*
X90967Y89213D01*
X90835Y89531D01*
X90800Y89592D01*
X90774Y89657D01*
X90722Y89729D01*
X90677Y89808D01*
X90629Y89858D01*
X90588Y89914D01*
X90518Y89972D01*
X90456Y90036D01*
X90396Y90072D01*
X90343Y90117D01*
X90261Y90155D01*
X90185Y90202D01*
X90118Y90223D01*
X90055Y90252D01*
X89967Y90269D01*
X89881Y90296D01*
X89811Y90299D01*
X89742Y90312D01*
X89653Y90307D01*
X89563Y90311D01*
X89495Y90297D01*
X89425Y90293D01*
X89340Y90265D01*
X89252Y90247D01*
X89189Y90216D01*
X89123Y90194D01*
X89047Y90146D01*
X88966Y90107D01*
X88913Y90062D01*
X88854Y90024D01*
X88792Y89959D01*
X88724Y89901D01*
X88684Y89844D01*
X88636Y89793D01*
X88593Y89714D01*
X88541Y89641D01*
X88516Y89575D01*
X88482Y89514D01*
X88460Y89427D01*
X88428Y89343D01*
X88420Y89274D01*
X88403Y89206D01*
X88393Y89046D01*
X88393Y88649D01*
X87500Y87756D01*
X81026Y87756D01*
X80908Y87741D01*
X80789Y87734D01*
X80751Y87721D01*
X80710Y87716D01*
X80600Y87673D01*
X80487Y87636D01*
X80452Y87614D01*
X80415Y87599D01*
X80319Y87530D01*
X80218Y87466D01*
X80190Y87436D01*
X80157Y87413D01*
X80081Y87321D01*
X80000Y87234D01*
X79980Y87199D01*
X79955Y87168D01*
X79904Y87060D01*
X79846Y86956D01*
X79836Y86916D01*
X79819Y86880D01*
X79797Y86763D01*
X79767Y86648D01*
X79763Y86588D01*
X79759Y86568D01*
X79761Y86547D01*
X79757Y86487D01*
X79757Y84963D01*
X79772Y84845D01*
X79779Y84726D01*
X79792Y84688D01*
X79797Y84647D01*
X79840Y84537D01*
X79877Y84424D01*
X79899Y84389D01*
X79914Y84352D01*
X79983Y84256D01*
X80047Y84155D01*
X80077Y84127D01*
X80100Y84094D01*
X80192Y84018D01*
X80279Y83937D01*
X80314Y83917D01*
X80345Y83892D01*
X80453Y83841D01*
X80557Y83783D01*
X80597Y83773D01*
X80633Y83756D01*
X80750Y83734D01*
X80865Y83704D01*
X80925Y83700D01*
X80945Y83696D01*
X80966Y83698D01*
X81026Y83694D01*
X87506Y83694D01*
X87570Y83644D01*
X87660Y83565D01*
X87696Y83547D01*
X87728Y83522D01*
X87837Y83475D01*
X87943Y83421D01*
X87982Y83412D01*
X88019Y83396D01*
X88137Y83377D01*
X88253Y83351D01*
X88294Y83352D01*
X88334Y83346D01*
X88452Y83357D01*
X88571Y83361D01*
X88610Y83372D01*
X88650Y83376D01*
X88762Y83416D01*
X88877Y83449D01*
X88911Y83469D01*
X88949Y83483D01*
X89048Y83550D01*
X89150Y83611D01*
X89196Y83650D01*
X89200Y83653D01*
X91070Y84428D01*
X93080Y84428D01*
X94937Y83659D01*
X96359Y82237D01*
X97128Y80380D01*
X97128Y78800D01*
X97140Y78702D01*
X97143Y78603D01*
X97160Y78545D01*
X97168Y78485D01*
X97204Y78393D01*
X97232Y78298D01*
X97262Y78245D01*
X97285Y78189D01*
X97343Y78109D01*
X97393Y78024D01*
X97459Y77948D01*
X97471Y77932D01*
X97481Y77924D01*
X97499Y77903D01*
X105561Y69841D01*
X105639Y69781D01*
X105711Y69713D01*
X105764Y69684D01*
X105812Y69647D01*
X105903Y69607D01*
X105990Y69559D01*
X106048Y69544D01*
X106104Y69520D01*
X106202Y69505D01*
X106298Y69480D01*
X106398Y69474D01*
X106418Y69470D01*
X106430Y69472D01*
X106458Y69470D01*
X113651Y69470D01*
X113749Y69482D01*
X113848Y69485D01*
X113906Y69502D01*
X113966Y69510D01*
X114058Y69546D01*
X114153Y69574D01*
X114206Y69604D01*
X114262Y69627D01*
X114342Y69685D01*
X114427Y69735D01*
X114503Y69801D01*
X114519Y69813D01*
X114527Y69823D01*
X114548Y69841D01*
X115700Y70994D01*
X136776Y70994D01*
X137669Y70101D01*
X137669Y64389D01*
X137684Y64271D01*
X137691Y64152D01*
X137704Y64114D01*
X137709Y64073D01*
X137752Y63962D01*
X137789Y63850D01*
X137811Y63815D01*
X137826Y63778D01*
X137895Y63682D01*
X137959Y63581D01*
X137989Y63553D01*
X138012Y63520D01*
X138104Y63444D01*
X138191Y63363D01*
X138226Y63343D01*
X138257Y63318D01*
X138365Y63267D01*
X138469Y63209D01*
X138509Y63199D01*
X138545Y63182D01*
X138662Y63160D01*
X138777Y63130D01*
X138837Y63126D01*
X138857Y63122D01*
X138878Y63124D01*
X138938Y63120D01*
X169767Y63120D01*
X169865Y63132D01*
G37*
G36*
X15945Y128287D02*
X15945Y128287D01*
X16044Y128290D01*
X16102Y128307D01*
X16162Y128315D01*
X16254Y128351D01*
X16349Y128379D01*
X16402Y128409D01*
X16458Y128432D01*
X16538Y128490D01*
X16623Y128540D01*
X16699Y128606D01*
X16715Y128618D01*
X16723Y128628D01*
X16744Y128646D01*
X21067Y132970D01*
X30179Y132970D01*
X30311Y132986D01*
X30443Y132997D01*
X30468Y133006D01*
X30495Y133010D01*
X30618Y133058D01*
X30743Y133102D01*
X30765Y133117D01*
X30790Y133127D01*
X30898Y133204D01*
X31008Y133278D01*
X31026Y133298D01*
X31048Y133313D01*
X31132Y133416D01*
X31221Y133514D01*
X31233Y133538D01*
X31251Y133558D01*
X31307Y133678D01*
X31368Y133795D01*
X31375Y133822D01*
X31386Y133846D01*
X31411Y133976D01*
X31441Y134105D01*
X31441Y134132D01*
X31446Y134158D01*
X31438Y134290D01*
X31435Y134423D01*
X31428Y134449D01*
X31426Y134476D01*
X31385Y134601D01*
X31350Y134729D01*
X31333Y134764D01*
X31328Y134778D01*
X31317Y134797D01*
X31278Y134874D01*
X31257Y134910D01*
X31084Y135556D01*
X31084Y138391D01*
X36626Y138391D01*
X36626Y134239D01*
X36641Y134121D01*
X36648Y134002D01*
X36660Y133964D01*
X36666Y133923D01*
X36709Y133813D01*
X36746Y133700D01*
X36768Y133665D01*
X36783Y133628D01*
X36852Y133532D01*
X36916Y133431D01*
X36946Y133403D01*
X36969Y133370D01*
X37061Y133294D01*
X37148Y133213D01*
X37183Y133193D01*
X37214Y133168D01*
X37322Y133117D01*
X37426Y133059D01*
X37466Y133049D01*
X37502Y133032D01*
X37619Y133010D01*
X37734Y132980D01*
X37794Y132976D01*
X37814Y132972D01*
X37835Y132974D01*
X37895Y132970D01*
X40355Y132970D01*
X40473Y132985D01*
X40592Y132992D01*
X40630Y133005D01*
X40671Y133010D01*
X40781Y133053D01*
X40894Y133090D01*
X40929Y133112D01*
X40966Y133127D01*
X41062Y133196D01*
X41163Y133260D01*
X41191Y133290D01*
X41224Y133313D01*
X41300Y133405D01*
X41381Y133492D01*
X41401Y133527D01*
X41426Y133558D01*
X41477Y133666D01*
X41535Y133770D01*
X41545Y133810D01*
X41562Y133846D01*
X41584Y133963D01*
X41614Y134078D01*
X41618Y134138D01*
X41622Y134158D01*
X41620Y134179D01*
X41624Y134239D01*
X41624Y138391D01*
X47831Y138391D01*
X47949Y138406D01*
X48068Y138414D01*
X48106Y138426D01*
X48147Y138431D01*
X48257Y138475D01*
X48370Y138512D01*
X48405Y138533D01*
X48442Y138548D01*
X48538Y138618D01*
X48639Y138682D01*
X48667Y138711D01*
X48700Y138735D01*
X48776Y138827D01*
X48857Y138913D01*
X48877Y138949D01*
X48902Y138980D01*
X48953Y139088D01*
X49011Y139192D01*
X49021Y139231D01*
X49038Y139268D01*
X49060Y139385D01*
X49090Y139500D01*
X49094Y139560D01*
X49098Y139580D01*
X49096Y139600D01*
X49100Y139661D01*
X49100Y142121D01*
X49085Y142239D01*
X49078Y142358D01*
X49065Y142396D01*
X49060Y142436D01*
X49017Y142547D01*
X48980Y142660D01*
X48958Y142694D01*
X48943Y142732D01*
X48874Y142828D01*
X48810Y142929D01*
X48780Y142956D01*
X48757Y142989D01*
X48665Y143065D01*
X48578Y143147D01*
X48543Y143166D01*
X48512Y143192D01*
X48404Y143243D01*
X48300Y143300D01*
X48260Y143310D01*
X48224Y143328D01*
X48107Y143350D01*
X47992Y143380D01*
X47932Y143383D01*
X47912Y143387D01*
X47891Y143386D01*
X47831Y143390D01*
X41624Y143390D01*
X41624Y148431D01*
X44959Y148431D01*
X45606Y148258D01*
X46185Y147924D01*
X46658Y147451D01*
X47065Y146746D01*
X47141Y146646D01*
X47211Y146542D01*
X47237Y146520D01*
X47257Y146493D01*
X47356Y146415D01*
X47450Y146332D01*
X47480Y146316D01*
X47506Y146295D01*
X47621Y146244D01*
X47733Y146187D01*
X47766Y146180D01*
X47797Y146166D01*
X47921Y146145D01*
X48043Y146117D01*
X48077Y146118D01*
X48110Y146113D01*
X48236Y146123D01*
X48361Y146127D01*
X48394Y146136D01*
X48427Y146139D01*
X48546Y146181D01*
X48667Y146215D01*
X48696Y146233D01*
X48728Y146244D01*
X48832Y146313D01*
X48941Y146377D01*
X48977Y146409D01*
X48993Y146419D01*
X49007Y146435D01*
X49061Y146483D01*
X49993Y147415D01*
X62257Y147415D01*
X63324Y146348D01*
X63388Y146260D01*
X63466Y146144D01*
X63482Y146131D01*
X63493Y146115D01*
X63601Y146026D01*
X63705Y145934D01*
X63723Y145925D01*
X63738Y145912D01*
X63864Y145853D01*
X63988Y145789D01*
X64008Y145785D01*
X64026Y145776D01*
X64163Y145750D01*
X64298Y145720D01*
X64319Y145720D01*
X64338Y145717D01*
X64477Y145725D01*
X64616Y145729D01*
X64636Y145735D01*
X64656Y145736D01*
X64788Y145779D01*
X64922Y145818D01*
X64939Y145828D01*
X64958Y145834D01*
X65076Y145909D01*
X65196Y145979D01*
X65217Y145998D01*
X65227Y146005D01*
X65241Y146020D01*
X65316Y146086D01*
X66424Y147194D01*
X68040Y147194D01*
X68177Y147211D01*
X68316Y147224D01*
X68335Y147231D01*
X68355Y147234D01*
X68484Y147285D01*
X68615Y147332D01*
X68632Y147343D01*
X68651Y147351D01*
X68763Y147432D01*
X68878Y147510D01*
X68892Y147526D01*
X68908Y147537D01*
X68997Y147645D01*
X69089Y147749D01*
X69098Y147767D01*
X69111Y147782D01*
X69170Y147908D01*
X69234Y148032D01*
X69238Y148052D01*
X69247Y148070D01*
X69273Y148206D01*
X69303Y148342D01*
X69303Y148363D01*
X69306Y148382D01*
X69298Y148521D01*
X69294Y148660D01*
X69288Y148680D01*
X69287Y148700D01*
X69244Y148832D01*
X69205Y148966D01*
X69195Y148983D01*
X69189Y149002D01*
X69114Y149120D01*
X69044Y149240D01*
X69025Y149261D01*
X69018Y149271D01*
X69003Y149285D01*
X68937Y149360D01*
X66030Y152267D01*
X66030Y153631D01*
X66015Y153749D01*
X66008Y153868D01*
X65995Y153906D01*
X65990Y153947D01*
X65947Y154057D01*
X65910Y154170D01*
X65888Y154205D01*
X65873Y154242D01*
X65804Y154338D01*
X65740Y154439D01*
X65710Y154467D01*
X65687Y154500D01*
X65595Y154576D01*
X65508Y154657D01*
X65473Y154677D01*
X65442Y154702D01*
X65334Y154753D01*
X65230Y154811D01*
X65190Y154821D01*
X65154Y154838D01*
X65037Y154860D01*
X64922Y154890D01*
X64862Y154894D01*
X64842Y154898D01*
X64821Y154896D01*
X64761Y154900D01*
X63193Y154900D01*
X62300Y155793D01*
X62300Y166409D01*
X62283Y166547D01*
X62270Y166685D01*
X62263Y166704D01*
X62260Y166724D01*
X62209Y166853D01*
X62162Y166984D01*
X62151Y167001D01*
X62143Y167020D01*
X62062Y167132D01*
X61984Y167247D01*
X61968Y167261D01*
X61957Y167277D01*
X61849Y167366D01*
X61745Y167458D01*
X61727Y167467D01*
X61712Y167480D01*
X61586Y167539D01*
X61462Y167603D01*
X61442Y167607D01*
X61424Y167616D01*
X61287Y167642D01*
X61152Y167672D01*
X61131Y167672D01*
X61112Y167675D01*
X60973Y167667D01*
X60834Y167663D01*
X60814Y167657D01*
X60794Y167656D01*
X60662Y167613D01*
X60528Y167574D01*
X60511Y167564D01*
X60492Y167558D01*
X60374Y167483D01*
X60254Y167413D01*
X60233Y167394D01*
X60223Y167387D01*
X60209Y167372D01*
X60134Y167306D01*
X58721Y165894D01*
X58661Y165816D01*
X58593Y165744D01*
X58564Y165691D01*
X58527Y165643D01*
X58487Y165552D01*
X58439Y165465D01*
X58424Y165407D01*
X58400Y165351D01*
X58385Y165253D01*
X58360Y165157D01*
X58354Y165057D01*
X58350Y165037D01*
X58352Y165025D01*
X58350Y164997D01*
X58350Y155793D01*
X57457Y154900D01*
X46193Y154900D01*
X45300Y155793D01*
X45300Y168057D01*
X46193Y168950D01*
X53347Y168950D01*
X53445Y168962D01*
X53544Y168965D01*
X53602Y168982D01*
X53662Y168990D01*
X53754Y169026D01*
X53849Y169054D01*
X53902Y169084D01*
X53958Y169107D01*
X54038Y169165D01*
X54123Y169215D01*
X54199Y169281D01*
X54215Y169293D01*
X54223Y169303D01*
X54244Y169321D01*
X64827Y179904D01*
X64845Y179927D01*
X64867Y179946D01*
X64942Y180052D01*
X65022Y180155D01*
X65033Y180182D01*
X65050Y180206D01*
X65096Y180328D01*
X65148Y180447D01*
X65153Y180476D01*
X65163Y180504D01*
X65177Y180633D01*
X65198Y180761D01*
X65195Y180791D01*
X65198Y180820D01*
X65180Y180948D01*
X65168Y181078D01*
X65158Y181106D01*
X65154Y181135D01*
X65102Y181287D01*
X63880Y184236D01*
X63880Y203114D01*
X65272Y206475D01*
X67223Y208426D01*
X67308Y208535D01*
X67397Y208642D01*
X67405Y208661D01*
X67418Y208677D01*
X67473Y208805D01*
X67532Y208930D01*
X67536Y208950D01*
X67544Y208969D01*
X67566Y209107D01*
X67592Y209243D01*
X67591Y209263D01*
X67594Y209283D01*
X67581Y209422D01*
X67572Y209560D01*
X67566Y209579D01*
X67564Y209599D01*
X67517Y209731D01*
X67474Y209862D01*
X67464Y209880D01*
X67457Y209899D01*
X67379Y210014D01*
X67304Y210131D01*
X67289Y210145D01*
X67278Y210162D01*
X67174Y210254D01*
X67073Y210349D01*
X67055Y210359D01*
X67040Y210372D01*
X66916Y210436D01*
X66794Y210503D01*
X66775Y210508D01*
X66756Y210517D01*
X66621Y210547D01*
X66486Y210582D01*
X66458Y210584D01*
X66446Y210587D01*
X66426Y210586D01*
X66325Y210592D01*
X55761Y210592D01*
X55623Y210575D01*
X55485Y210562D01*
X55466Y210555D01*
X55446Y210552D01*
X55316Y210501D01*
X55186Y210454D01*
X55169Y210443D01*
X55150Y210435D01*
X55038Y210354D01*
X54923Y210276D01*
X54909Y210260D01*
X54893Y210249D01*
X54804Y210141D01*
X54712Y210037D01*
X54703Y210019D01*
X54690Y210004D01*
X54631Y209878D01*
X54568Y209754D01*
X54563Y209734D01*
X54554Y209716D01*
X54528Y209580D01*
X54498Y209444D01*
X54499Y209423D01*
X54495Y209404D01*
X54503Y209265D01*
X54508Y209126D01*
X54513Y209106D01*
X54514Y209086D01*
X54557Y208954D01*
X54596Y208820D01*
X54606Y208803D01*
X54612Y208784D01*
X54687Y208666D01*
X54758Y208546D01*
X54776Y208525D01*
X54783Y208515D01*
X54798Y208501D01*
X54864Y208425D01*
X55375Y207914D01*
X56315Y206620D01*
X57041Y205195D01*
X57536Y203674D01*
X57786Y202095D01*
X57786Y196214D01*
X48895Y196214D01*
X48777Y196199D01*
X48658Y196192D01*
X48620Y196179D01*
X48580Y196174D01*
X48469Y196131D01*
X48356Y196094D01*
X48322Y196072D01*
X48284Y196057D01*
X48188Y195987D01*
X48087Y195924D01*
X48059Y195894D01*
X48027Y195870D01*
X47951Y195779D01*
X47869Y195692D01*
X47850Y195657D01*
X47824Y195626D01*
X47773Y195518D01*
X47716Y195414D01*
X47705Y195374D01*
X47688Y195338D01*
X47666Y195221D01*
X47636Y195106D01*
X47632Y195045D01*
X47628Y195025D01*
X47630Y195005D01*
X47626Y194945D01*
X47626Y193674D01*
X47624Y193674D01*
X47624Y194945D01*
X47609Y195063D01*
X47602Y195182D01*
X47589Y195220D01*
X47584Y195260D01*
X47540Y195371D01*
X47504Y195484D01*
X47482Y195519D01*
X47467Y195556D01*
X47397Y195652D01*
X47334Y195753D01*
X47304Y195781D01*
X47280Y195814D01*
X47189Y195889D01*
X47102Y195971D01*
X47067Y195991D01*
X47035Y196016D01*
X46928Y196067D01*
X46823Y196125D01*
X46784Y196135D01*
X46748Y196152D01*
X46631Y196174D01*
X46516Y196204D01*
X46455Y196208D01*
X46435Y196212D01*
X46415Y196210D01*
X46355Y196214D01*
X37464Y196214D01*
X37464Y202095D01*
X37714Y203674D01*
X38209Y205195D01*
X38935Y206620D01*
X39875Y207914D01*
X40386Y208425D01*
X40471Y208535D01*
X40560Y208642D01*
X40569Y208661D01*
X40581Y208677D01*
X40636Y208805D01*
X40696Y208930D01*
X40699Y208950D01*
X40707Y208969D01*
X40729Y209107D01*
X40755Y209243D01*
X40754Y209263D01*
X40757Y209283D01*
X40744Y209422D01*
X40736Y209560D01*
X40729Y209579D01*
X40727Y209599D01*
X40680Y209730D01*
X40638Y209862D01*
X40627Y209880D01*
X40620Y209899D01*
X40542Y210013D01*
X40467Y210131D01*
X40453Y210145D01*
X40441Y210162D01*
X40337Y210254D01*
X40236Y210349D01*
X40218Y210359D01*
X40203Y210372D01*
X40079Y210435D01*
X39957Y210503D01*
X39938Y210508D01*
X39920Y210517D01*
X39784Y210547D01*
X39649Y210582D01*
X39621Y210584D01*
X39609Y210587D01*
X39589Y210586D01*
X39489Y210592D01*
X3302Y210592D01*
X3184Y210577D01*
X3065Y210570D01*
X3027Y210557D01*
X2986Y210552D01*
X2876Y210509D01*
X2763Y210472D01*
X2728Y210450D01*
X2691Y210435D01*
X2595Y210366D01*
X2494Y210302D01*
X2466Y210272D01*
X2433Y210249D01*
X2357Y210157D01*
X2276Y210070D01*
X2256Y210035D01*
X2231Y210004D01*
X2180Y209896D01*
X2122Y209792D01*
X2112Y209752D01*
X2095Y209716D01*
X2073Y209599D01*
X2043Y209484D01*
X2039Y209424D01*
X2035Y209404D01*
X2037Y209383D01*
X2033Y209323D01*
X2033Y129544D01*
X2048Y129426D01*
X2055Y129307D01*
X2068Y129269D01*
X2073Y129228D01*
X2116Y129118D01*
X2153Y129005D01*
X2175Y128970D01*
X2190Y128933D01*
X2259Y128837D01*
X2323Y128736D01*
X2353Y128708D01*
X2376Y128675D01*
X2468Y128599D01*
X2555Y128518D01*
X2590Y128498D01*
X2621Y128473D01*
X2729Y128422D01*
X2833Y128364D01*
X2873Y128354D01*
X2909Y128337D01*
X3026Y128315D01*
X3141Y128285D01*
X3201Y128281D01*
X3221Y128277D01*
X3242Y128279D01*
X3302Y128275D01*
X15847Y128275D01*
X15945Y128287D01*
G37*
G36*
X177772Y103044D02*
X177772Y103044D01*
X177910Y103052D01*
X177929Y103059D01*
X177949Y103060D01*
X178081Y103108D01*
X178212Y103150D01*
X178230Y103161D01*
X178249Y103168D01*
X178364Y103246D01*
X178481Y103321D01*
X178495Y103335D01*
X178512Y103347D01*
X178604Y103451D01*
X178699Y103552D01*
X178709Y103570D01*
X178722Y103585D01*
X178786Y103709D01*
X178853Y103831D01*
X178858Y103850D01*
X178867Y103868D01*
X178897Y104004D01*
X178932Y104139D01*
X178934Y104167D01*
X178937Y104179D01*
X178936Y104199D01*
X178942Y104299D01*
X178942Y209323D01*
X178927Y209441D01*
X178920Y209560D01*
X178907Y209598D01*
X178902Y209639D01*
X178859Y209749D01*
X178822Y209862D01*
X178800Y209897D01*
X178785Y209934D01*
X178716Y210030D01*
X178652Y210131D01*
X178622Y210159D01*
X178599Y210192D01*
X178507Y210268D01*
X178420Y210349D01*
X178385Y210369D01*
X178354Y210394D01*
X178246Y210445D01*
X178142Y210503D01*
X178102Y210513D01*
X178066Y210530D01*
X177949Y210552D01*
X177834Y210582D01*
X177774Y210586D01*
X177754Y210590D01*
X177733Y210588D01*
X177673Y210592D01*
X130525Y210592D01*
X130387Y210575D01*
X130248Y210562D01*
X130229Y210555D01*
X130209Y210552D01*
X130080Y210501D01*
X129949Y210454D01*
X129932Y210443D01*
X129913Y210435D01*
X129801Y210354D01*
X129686Y210276D01*
X129672Y210260D01*
X129656Y210249D01*
X129567Y210141D01*
X129475Y210037D01*
X129466Y210019D01*
X129453Y210004D01*
X129394Y209878D01*
X129331Y209754D01*
X129326Y209734D01*
X129318Y209716D01*
X129292Y209580D01*
X129261Y209444D01*
X129262Y209423D01*
X129258Y209404D01*
X129266Y209265D01*
X129271Y209126D01*
X129276Y209106D01*
X129278Y209086D01*
X129320Y208954D01*
X129359Y208820D01*
X129369Y208803D01*
X129376Y208784D01*
X129450Y208666D01*
X129521Y208546D01*
X129539Y208525D01*
X129546Y208515D01*
X129561Y208501D01*
X129627Y208426D01*
X131578Y206475D01*
X132970Y203114D01*
X132970Y197739D01*
X132985Y197621D01*
X132992Y197502D01*
X133005Y197464D01*
X133010Y197423D01*
X133053Y197313D01*
X133090Y197200D01*
X133112Y197165D01*
X133127Y197128D01*
X133196Y197032D01*
X133260Y196931D01*
X133290Y196903D01*
X133313Y196870D01*
X133405Y196794D01*
X133492Y196713D01*
X133527Y196693D01*
X133558Y196668D01*
X133666Y196617D01*
X133770Y196559D01*
X133810Y196549D01*
X133846Y196532D01*
X133963Y196510D01*
X134078Y196480D01*
X134138Y196476D01*
X134158Y196472D01*
X134179Y196474D01*
X134239Y196470D01*
X140858Y196470D01*
X171070Y166258D01*
X171070Y144319D01*
X171085Y144201D01*
X171092Y144082D01*
X171105Y144044D01*
X171110Y144003D01*
X171153Y143893D01*
X171190Y143780D01*
X171212Y143745D01*
X171227Y143708D01*
X171296Y143612D01*
X171360Y143511D01*
X171390Y143483D01*
X171413Y143450D01*
X171505Y143374D01*
X171592Y143293D01*
X171627Y143273D01*
X171658Y143248D01*
X171766Y143197D01*
X171870Y143139D01*
X171910Y143129D01*
X171946Y143112D01*
X172063Y143090D01*
X172178Y143060D01*
X172238Y143056D01*
X172258Y143052D01*
X172279Y143054D01*
X172339Y143050D01*
X173382Y143050D01*
X174275Y142157D01*
X174275Y130893D01*
X173382Y130000D01*
X172314Y130000D01*
X172196Y129985D01*
X172077Y129978D01*
X172039Y129965D01*
X171998Y129960D01*
X171888Y129917D01*
X171775Y129880D01*
X171740Y129858D01*
X171703Y129843D01*
X171607Y129774D01*
X171506Y129710D01*
X171478Y129680D01*
X171445Y129657D01*
X171369Y129565D01*
X171288Y129478D01*
X171268Y129443D01*
X171243Y129412D01*
X171192Y129304D01*
X171134Y129200D01*
X171124Y129160D01*
X171107Y129124D01*
X171085Y129007D01*
X171055Y128892D01*
X171051Y128832D01*
X171047Y128812D01*
X171049Y128791D01*
X171045Y128731D01*
X171045Y125069D01*
X171060Y124951D01*
X171067Y124832D01*
X171080Y124794D01*
X171085Y124753D01*
X171128Y124643D01*
X171165Y124530D01*
X171187Y124495D01*
X171202Y124458D01*
X171271Y124362D01*
X171335Y124261D01*
X171365Y124233D01*
X171388Y124200D01*
X171480Y124124D01*
X171567Y124043D01*
X171602Y124023D01*
X171633Y123998D01*
X171728Y123953D01*
X172775Y122907D01*
X172775Y109643D01*
X172552Y109421D01*
X172479Y109326D01*
X172400Y109237D01*
X172382Y109201D01*
X172357Y109169D01*
X172310Y109060D01*
X172255Y108954D01*
X172247Y108914D01*
X172231Y108877D01*
X172212Y108760D01*
X172186Y108643D01*
X172187Y108603D01*
X172181Y108563D01*
X172192Y108444D01*
X172196Y108326D01*
X172207Y108287D01*
X172210Y108247D01*
X172251Y108134D01*
X172284Y108020D01*
X172304Y107985D01*
X172318Y107947D01*
X172385Y107849D01*
X172446Y107746D01*
X172485Y107701D01*
X172497Y107684D01*
X172512Y107671D01*
X172552Y107625D01*
X172632Y107546D01*
X172632Y107545D01*
X176776Y103402D01*
X176885Y103317D01*
X176992Y103228D01*
X177011Y103219D01*
X177027Y103207D01*
X177155Y103151D01*
X177280Y103092D01*
X177300Y103089D01*
X177319Y103081D01*
X177457Y103059D01*
X177593Y103033D01*
X177613Y103034D01*
X177633Y103031D01*
X177772Y103044D01*
G37*
%LPC*%
G36*
X96606Y8635D02*
X96606Y8635D01*
X93245Y10027D01*
X90672Y12600D01*
X89280Y15961D01*
X89280Y34839D01*
X90672Y38200D01*
X93245Y40773D01*
X96606Y42165D01*
X100244Y42165D01*
X103605Y40773D01*
X106178Y38200D01*
X107570Y34839D01*
X107570Y15961D01*
X106178Y12600D01*
X103605Y10027D01*
X100244Y8635D01*
X96606Y8635D01*
G37*
%LPD*%
%LPC*%
G36*
X145530Y31416D02*
X145530Y31416D01*
X141350Y35595D01*
X141350Y37910D01*
X142987Y39548D01*
X145303Y39548D01*
X146810Y38040D01*
X146920Y37955D01*
X147027Y37866D01*
X147045Y37858D01*
X147061Y37845D01*
X147189Y37790D01*
X147315Y37731D01*
X147334Y37727D01*
X147353Y37719D01*
X147491Y37697D01*
X147627Y37671D01*
X147647Y37672D01*
X147667Y37669D01*
X147806Y37682D01*
X147944Y37691D01*
X147964Y37697D01*
X147984Y37699D01*
X148115Y37746D01*
X148247Y37789D01*
X148264Y37799D01*
X148283Y37806D01*
X148398Y37884D01*
X148516Y37959D01*
X148530Y37974D01*
X148546Y37985D01*
X148638Y38089D01*
X148734Y38190D01*
X148743Y38208D01*
X148757Y38223D01*
X148820Y38347D01*
X148887Y38469D01*
X148892Y38489D01*
X148901Y38507D01*
X148932Y38642D01*
X148967Y38777D01*
X148968Y38805D01*
X148971Y38817D01*
X148970Y38837D01*
X148977Y38938D01*
X148977Y45400D01*
X148962Y45518D01*
X148954Y45637D01*
X148942Y45675D01*
X148937Y45715D01*
X148893Y45826D01*
X148856Y45939D01*
X148835Y45973D01*
X148820Y46011D01*
X148750Y46107D01*
X148686Y46208D01*
X148657Y46236D01*
X148633Y46268D01*
X148541Y46344D01*
X148455Y46426D01*
X148419Y46445D01*
X148388Y46471D01*
X148280Y46522D01*
X148176Y46579D01*
X148156Y46584D01*
X146435Y48306D01*
X146435Y50621D01*
X148072Y52258D01*
X155471Y52258D01*
X157108Y50621D01*
X157108Y50530D01*
X157126Y50392D01*
X157139Y50254D01*
X157146Y50235D01*
X157148Y50214D01*
X157200Y50085D01*
X157246Y49954D01*
X157258Y49937D01*
X157265Y49919D01*
X157347Y49806D01*
X157425Y49691D01*
X157440Y49678D01*
X157452Y49661D01*
X157559Y49573D01*
X157663Y49481D01*
X157681Y49471D01*
X157697Y49459D01*
X157822Y49399D01*
X157947Y49336D01*
X157967Y49332D01*
X157985Y49323D01*
X158121Y49297D01*
X158257Y49266D01*
X158277Y49267D01*
X158297Y49263D01*
X158436Y49272D01*
X158575Y49276D01*
X158594Y49282D01*
X158615Y49283D01*
X158747Y49326D01*
X158880Y49364D01*
X158898Y49375D01*
X158917Y49381D01*
X159034Y49455D01*
X159154Y49526D01*
X159175Y49545D01*
X159186Y49551D01*
X159200Y49566D01*
X159275Y49632D01*
X159892Y50250D01*
X160608Y50965D01*
X161901Y52258D01*
X169301Y52258D01*
X173480Y48079D01*
X173480Y45764D01*
X171843Y44127D01*
X169528Y44127D01*
X167357Y46297D01*
X167279Y46358D01*
X167207Y46426D01*
X167154Y46455D01*
X167106Y46492D01*
X167015Y46531D01*
X166928Y46579D01*
X166870Y46594D01*
X166814Y46618D01*
X166716Y46634D01*
X166620Y46659D01*
X166520Y46665D01*
X166500Y46668D01*
X166488Y46667D01*
X166460Y46669D01*
X164742Y46669D01*
X164644Y46657D01*
X164545Y46654D01*
X164487Y46637D01*
X164427Y46629D01*
X164334Y46593D01*
X164239Y46565D01*
X164187Y46534D01*
X164131Y46512D01*
X164051Y46454D01*
X163965Y46404D01*
X163890Y46337D01*
X163874Y46325D01*
X163866Y46316D01*
X163845Y46297D01*
X163683Y46136D01*
X163622Y46057D01*
X163554Y45985D01*
X163525Y45932D01*
X163488Y45884D01*
X163449Y45793D01*
X163401Y45707D01*
X163386Y45648D01*
X163362Y45593D01*
X163346Y45495D01*
X163322Y45399D01*
X163315Y45299D01*
X163312Y45278D01*
X163313Y45266D01*
X163311Y45238D01*
X163311Y38436D01*
X163324Y38338D01*
X163327Y38239D01*
X163344Y38181D01*
X163351Y38121D01*
X163388Y38029D01*
X163415Y37933D01*
X163446Y37881D01*
X163468Y37825D01*
X163526Y37745D01*
X163577Y37659D01*
X163643Y37584D01*
X163655Y37568D01*
X163664Y37560D01*
X163683Y37539D01*
X163845Y37377D01*
X163923Y37316D01*
X163995Y37249D01*
X164048Y37219D01*
X164096Y37182D01*
X164187Y37143D01*
X164273Y37095D01*
X164332Y37080D01*
X164388Y37056D01*
X164486Y37040D01*
X164581Y37016D01*
X164681Y37009D01*
X164702Y37006D01*
X164714Y37007D01*
X164742Y37005D01*
X166460Y37005D01*
X166558Y37018D01*
X166657Y37021D01*
X166715Y37038D01*
X166775Y37045D01*
X166867Y37082D01*
X166962Y37109D01*
X167015Y37140D01*
X167071Y37162D01*
X167151Y37220D01*
X167236Y37271D01*
X167312Y37337D01*
X167328Y37349D01*
X167336Y37358D01*
X167357Y37377D01*
X169528Y39548D01*
X171843Y39548D01*
X173480Y37910D01*
X173480Y35595D01*
X170546Y32661D01*
X169301Y31416D01*
X161901Y31416D01*
X157722Y35595D01*
X157722Y45855D01*
X157704Y45993D01*
X157691Y46132D01*
X157685Y46151D01*
X157682Y46171D01*
X157631Y46300D01*
X157584Y46431D01*
X157572Y46448D01*
X157565Y46466D01*
X157483Y46579D01*
X157405Y46694D01*
X157390Y46707D01*
X157378Y46724D01*
X157271Y46812D01*
X157167Y46905D01*
X157149Y46914D01*
X157133Y46927D01*
X157008Y46986D01*
X156883Y47049D01*
X156864Y47054D01*
X156845Y47062D01*
X156709Y47088D01*
X156573Y47119D01*
X156553Y47118D01*
X156533Y47122D01*
X156394Y47113D01*
X156255Y47109D01*
X156236Y47103D01*
X156216Y47102D01*
X156084Y47059D01*
X155950Y47021D01*
X155932Y47010D01*
X155913Y47004D01*
X155796Y46930D01*
X155676Y46859D01*
X155655Y46841D01*
X155644Y46834D01*
X155630Y46819D01*
X155555Y46753D01*
X155377Y46575D01*
X155296Y46549D01*
X155262Y46527D01*
X155224Y46512D01*
X155128Y46442D01*
X155027Y46378D01*
X155000Y46349D01*
X154967Y46325D01*
X154891Y46233D01*
X154809Y46147D01*
X154790Y46111D01*
X154764Y46080D01*
X154713Y45973D01*
X154656Y45868D01*
X154646Y45829D01*
X154629Y45793D01*
X154606Y45676D01*
X154576Y45560D01*
X154573Y45500D01*
X154569Y45480D01*
X154570Y45460D01*
X154566Y45400D01*
X154566Y35595D01*
X150387Y31416D01*
X145530Y31416D01*
G37*
%LPD*%
%LPC*%
G36*
X50164Y27939D02*
X50164Y27939D01*
X50164Y42879D01*
X51525Y42436D01*
X52950Y41710D01*
X54244Y40770D01*
X55375Y39639D01*
X56315Y38345D01*
X57041Y36920D01*
X57536Y35399D01*
X57786Y33820D01*
X57786Y27939D01*
X50164Y27939D01*
G37*
%LPD*%
%LPC*%
G36*
X50164Y191136D02*
X50164Y191136D01*
X57786Y191136D01*
X57786Y185255D01*
X57536Y183676D01*
X57041Y182155D01*
X56315Y180730D01*
X55375Y179436D01*
X54244Y178305D01*
X52950Y177365D01*
X51525Y176639D01*
X50164Y176196D01*
X50164Y191136D01*
G37*
%LPD*%
%LPC*%
G36*
X50164Y22861D02*
X50164Y22861D01*
X57786Y22861D01*
X57786Y16980D01*
X57536Y15401D01*
X57041Y13880D01*
X56315Y12455D01*
X55375Y11161D01*
X54244Y10030D01*
X52950Y9090D01*
X51525Y8364D01*
X50164Y7921D01*
X50164Y22861D01*
G37*
%LPD*%
%LPC*%
G36*
X37464Y27939D02*
X37464Y27939D01*
X37464Y33820D01*
X37714Y35399D01*
X38209Y36920D01*
X38935Y38345D01*
X39875Y39639D01*
X41006Y40770D01*
X42300Y41710D01*
X43725Y42436D01*
X45086Y42879D01*
X45086Y27939D01*
X37464Y27939D01*
G37*
%LPD*%
%LPC*%
G36*
X43725Y176639D02*
X43725Y176639D01*
X42300Y177365D01*
X41006Y178305D01*
X39875Y179436D01*
X38935Y180730D01*
X38209Y182155D01*
X37714Y183676D01*
X37464Y185255D01*
X37464Y191136D01*
X45086Y191136D01*
X45086Y176196D01*
X43725Y176639D01*
G37*
%LPD*%
%LPC*%
G36*
X43725Y8364D02*
X43725Y8364D01*
X42300Y9090D01*
X41006Y10030D01*
X39875Y11161D01*
X38935Y12455D01*
X38209Y13880D01*
X37714Y15401D01*
X37464Y16980D01*
X37464Y22861D01*
X45086Y22861D01*
X45086Y7921D01*
X43725Y8364D01*
G37*
%LPD*%
%LPC*%
G36*
X113791Y144271D02*
X113791Y144271D01*
X113791Y146003D01*
X113964Y146650D01*
X114299Y147229D01*
X114772Y147702D01*
X115351Y148037D01*
X115998Y148210D01*
X124842Y148210D01*
X124842Y144271D01*
X113791Y144271D01*
G37*
%LPD*%
%LPC*%
G36*
X115998Y137540D02*
X115998Y137540D01*
X115351Y137713D01*
X114772Y138048D01*
X114299Y138521D01*
X113964Y139100D01*
X113791Y139747D01*
X113791Y141479D01*
X124842Y141479D01*
X124842Y137540D01*
X115998Y137540D01*
G37*
%LPD*%
%LPC*%
G36*
X31084Y143390D02*
X31084Y143390D01*
X31084Y146225D01*
X31257Y146871D01*
X31592Y147451D01*
X32065Y147924D01*
X32644Y148258D01*
X33291Y148431D01*
X36626Y148431D01*
X36626Y143390D01*
X31084Y143390D01*
G37*
%LPD*%
%LPC*%
G36*
X55681Y68391D02*
X55681Y68391D01*
X55681Y73932D01*
X60722Y73932D01*
X60722Y70597D01*
X60549Y69950D01*
X60214Y69371D01*
X59741Y68898D01*
X59162Y68564D01*
X58516Y68391D01*
X55681Y68391D01*
G37*
%LPD*%
%LPC*%
G36*
X47847Y68391D02*
X47847Y68391D01*
X47200Y68564D01*
X46621Y68898D01*
X46148Y69371D01*
X45814Y69950D01*
X45641Y70597D01*
X45641Y73932D01*
X50682Y73932D01*
X50682Y68391D01*
X47847Y68391D01*
G37*
%LPD*%
%LPC*%
G36*
X47624Y25399D02*
X47624Y25399D01*
X47624Y25401D01*
X47626Y25401D01*
X47626Y25399D01*
X47624Y25399D01*
G37*
%LPD*%
D10*
X144145Y36753D02*
X146687Y34211D01*
X149229Y34211D01*
X151772Y36753D01*
X151772Y49464D01*
X154314Y49464D02*
X149229Y49464D01*
X168143Y49464D02*
X170685Y46921D01*
X168143Y49464D02*
X163059Y49464D01*
X160517Y46921D01*
X160517Y36753D01*
X163059Y34211D01*
X168143Y34211D01*
X170685Y36753D01*
D11*
X150250Y136525D03*
X167250Y136525D03*
X39125Y140891D03*
X56125Y140891D03*
D12*
X53181Y107388D03*
X53181Y124388D03*
X53181Y76431D03*
X53181Y93431D03*
X68825Y161925D03*
X51825Y161925D03*
X83575Y161925D03*
X100575Y161925D03*
X120881Y161925D03*
X137881Y161925D03*
D13*
X76962Y142875D03*
X76962Y130175D03*
X76962Y117475D03*
X76962Y104775D03*
X76962Y92075D03*
X76962Y79375D03*
X76962Y66675D03*
X126238Y66675D03*
X126238Y79375D03*
X126238Y92075D03*
X126238Y104775D03*
X126238Y117475D03*
X126238Y130175D03*
X126238Y142875D03*
D14*
X34225Y73250D03*
X34225Y117250D03*
X10225Y117250D03*
X10225Y73250D03*
D15*
X168250Y116275D03*
X158750Y116275D03*
X149250Y116275D03*
X149250Y93275D03*
X168250Y93275D03*
D11*
X150250Y76200D03*
X167250Y76200D03*
D16*
X47625Y33020D02*
X47625Y17780D01*
X73025Y17780D02*
X73025Y33020D01*
X98425Y33020D02*
X98425Y17780D01*
X123825Y17780D02*
X123825Y33020D01*
X47625Y186055D02*
X47625Y201295D01*
X73025Y201295D02*
X73025Y186055D01*
X98425Y186055D02*
X98425Y201295D01*
X123825Y201295D02*
X123825Y186055D01*
D17*
X150019Y136525D03*
X168275Y76200D03*
D10*
X150250Y135500D02*
X150250Y136525D01*
D17*
X39125Y140891D03*
X53181Y107388D03*
X53181Y75638D03*
X111125Y130175D03*
X19050Y28575D03*
X158750Y25400D03*
X158750Y187325D03*
X19050Y187325D03*
D10*
X58109Y142875D02*
X76962Y142875D01*
X58109Y142875D02*
X56125Y140891D01*
X159156Y93275D02*
X168250Y93275D01*
X159156Y93275D02*
X159147Y93266D01*
D17*
X159147Y93266D03*
D10*
X158750Y93663D01*
X158750Y98425D01*
X154781Y102394D01*
X145256Y102394D02*
X140494Y107156D01*
X140494Y159313D02*
X137881Y161925D01*
X145256Y102394D02*
X154781Y102394D01*
X140494Y107156D02*
X140494Y159313D01*
D17*
X137881Y161925D03*
X56125Y140891D03*
D10*
X168250Y132350D02*
X168250Y116275D01*
X168250Y132350D02*
X168250Y135525D01*
X167250Y136525D01*
X149250Y116275D02*
X149250Y107975D01*
X149225Y107950D01*
X150416Y106759D01*
X167084Y106759D01*
X168275Y107950D01*
X168275Y116250D01*
X168250Y116275D01*
X168275Y107950D02*
X169466Y106759D01*
X177403Y98822D01*
X177403Y66278D01*
X139700Y193675D02*
X123825Y193675D01*
X139700Y193675D02*
X168275Y165100D01*
X168275Y132375D02*
X168250Y132350D01*
X168275Y132375D02*
X168275Y165100D01*
X177403Y66278D02*
X171450Y60325D01*
X136525Y60325D01*
X123825Y47625D01*
X123825Y25400D01*
X167084Y106759D02*
X169466Y106759D01*
X103188Y142313D02*
X83575Y161925D01*
X103188Y98822D02*
X109934Y92075D01*
X126238Y92075D01*
X103188Y98822D02*
X103188Y142313D01*
X76962Y92075D02*
X76962Y79375D01*
X68825Y153425D02*
X68825Y161925D01*
X68825Y153425D02*
X73025Y149225D01*
X87353Y149225D01*
X98727Y137851D01*
X98727Y108252D01*
X82550Y92075D01*
X76962Y92075D01*
X53181Y124388D02*
X58969Y130175D01*
X76962Y130175D01*
X10225Y117250D02*
X9988Y117013D01*
X47394Y130175D02*
X53181Y124388D01*
X47394Y130175D02*
X22225Y130175D01*
X9988Y117938D01*
X9988Y117013D01*
X52156Y93431D02*
X53181Y93431D01*
X52156Y93431D02*
X34225Y75500D01*
X34225Y73250D01*
X59531Y93431D02*
X63500Y97400D01*
X59531Y93431D02*
X53181Y93431D01*
X63500Y114300D02*
X66675Y117475D01*
X76962Y117475D01*
X63500Y114300D02*
X63500Y97400D01*
X76962Y104775D02*
X88900Y104775D01*
X92075Y107950D01*
D17*
X92075Y130175D03*
D10*
X92075Y107950D01*
X92075Y79375D02*
X104775Y66675D01*
D17*
X92075Y79375D03*
D10*
X104775Y66675D02*
X126238Y66675D01*
X126238Y79375D02*
X107950Y79375D01*
X95250Y92075D01*
D17*
X95250Y92075D03*
D10*
X149250Y93275D02*
X149250Y77200D01*
X150250Y76200D01*
X73025Y184150D02*
X73025Y193675D01*
X73025Y184150D02*
X50800Y161925D01*
X51825Y161925D01*
D18*
X73025Y65913D02*
X73025Y25400D01*
D10*
X73787Y66675D02*
X76962Y66675D01*
X73787Y66675D02*
X73025Y65913D01*
X76962Y66675D02*
X95250Y66675D01*
D17*
X95250Y66675D03*
D10*
X100575Y161925D02*
X120881Y161925D01*
X100575Y161925D02*
X98425Y164075D01*
X98425Y193675D01*
M02*
