G04 EAGLE Gerber RS-274X export*
G75*
%MOMM*%
%FSLAX34Y34*%
%LPD*%
%INSilkscreen Top*%
%IPPOS*%
%AMOC8*
5,1,8,0,0,1.08239X$1,22.5*%
G01*
%ADD10C,0.254000*%
%ADD11C,0.050800*%
%ADD12C,0.152400*%
%ADD13C,0.076200*%
%ADD14C,0.203200*%
%ADD15C,0.364000*%
%ADD16C,0.127000*%


D10*
X155575Y139700D02*
X161925Y139700D01*
X161925Y133350D02*
X155575Y133350D01*
X155575Y139700D01*
X161925Y133350D01*
X161925Y139700D01*
X155575Y133350D01*
X130175Y165100D02*
X127000Y165100D01*
X130175Y165100D02*
X133350Y165100D01*
X133350Y158750D02*
X130175Y158750D01*
X127000Y158750D01*
X123825Y158750D01*
X123825Y165100D02*
X127000Y165100D01*
X133350Y158750D01*
X133350Y161925D01*
X133350Y165100D01*
X130175Y161925D01*
X130175Y158750D01*
X127000Y161925D01*
X123825Y165100D01*
X123825Y161925D01*
X123825Y158750D01*
X127000Y161925D01*
X127000Y158750D01*
X123825Y161925D01*
X133350Y161925D01*
X130175Y165100D01*
X98425Y165100D02*
X85725Y165100D01*
X98425Y165100D02*
X98425Y161925D01*
X95250Y161925D01*
X92075Y161925D01*
X88900Y161925D01*
X85725Y161925D01*
X85725Y158750D02*
X88900Y158750D01*
X92075Y158750D01*
X95250Y158750D01*
X98425Y158750D01*
X95250Y161925D01*
X95250Y158750D01*
X92075Y161925D01*
X92075Y158750D01*
X88900Y161925D01*
X88900Y158750D01*
X85725Y161925D01*
X85725Y158750D01*
X66675Y165100D02*
X53975Y165100D01*
X66675Y165100D02*
X66675Y161925D01*
X63500Y161925D01*
X60325Y161925D01*
X57150Y161925D01*
X53975Y161925D01*
X53975Y158750D02*
X57150Y158750D01*
X60325Y158750D01*
X63500Y158750D01*
X66675Y158750D01*
X63500Y161925D01*
X63500Y158750D01*
X60325Y161925D01*
X60325Y158750D01*
X57150Y161925D01*
X57150Y158750D01*
X53975Y161925D01*
X53975Y158750D01*
X44450Y142875D02*
X41275Y142875D01*
X44450Y142875D02*
X47625Y142875D01*
X53975Y142875D02*
X53975Y139700D01*
X50800Y139700D01*
X44450Y139700D02*
X41275Y139700D01*
X41275Y142875D01*
X44450Y139700D02*
X47625Y139700D01*
X47625Y142875D01*
X44450Y139700D01*
X41275Y142875D01*
X50800Y142875D02*
X53975Y142875D01*
X50800Y139700D01*
X47625Y142875D01*
X50800Y142875D01*
X50800Y139700D01*
X47625Y139700D01*
X44450Y139700D02*
X44450Y142875D01*
X50800Y120650D02*
X50800Y117475D01*
X50800Y114300D02*
X50800Y111125D01*
X53975Y111125D01*
X53975Y114300D02*
X53975Y117475D01*
X53975Y120650D01*
X50800Y120650D02*
X53975Y117475D01*
X50800Y114300D01*
X53975Y111125D01*
X53975Y114300D01*
X50800Y114300D01*
X50800Y117475D01*
X53975Y117475D01*
X50800Y88900D02*
X50800Y79375D01*
X50800Y76200D02*
X53975Y76200D01*
X53975Y79375D01*
X53975Y82550D02*
X53975Y88900D01*
X50800Y88900D01*
X53975Y79375D01*
X50800Y76200D01*
X50800Y79375D01*
X53975Y79375D01*
X53975Y82550D01*
X50800Y88900D01*
X155575Y79375D02*
X158750Y79375D01*
X155575Y79375D02*
X155575Y76200D01*
X158750Y76200D01*
X161925Y76200D01*
X158750Y73025D02*
X155575Y73025D01*
X158750Y76200D01*
X161925Y73025D01*
X161925Y76200D01*
X158750Y79375D01*
X155575Y76200D01*
X158750Y79375D02*
X158750Y73025D01*
X161925Y73025D01*
X161925Y76200D02*
X161925Y79375D01*
X158750Y79375D01*
X155575Y76200D02*
X155575Y73025D01*
X82550Y146050D02*
X85725Y149225D01*
X82550Y146050D02*
X82550Y60325D01*
X120650Y60325D01*
X120650Y149225D01*
X107950Y149225D01*
X95250Y149225D01*
X85725Y149225D01*
X95250Y149225D02*
X95250Y146050D01*
X98425Y142875D01*
X104775Y142875D01*
X107950Y146050D01*
X107950Y149225D01*
D11*
X173938Y134416D02*
X174870Y135348D01*
X173938Y134416D02*
X173938Y132552D01*
X174870Y131620D01*
X178598Y131620D01*
X179530Y132552D01*
X179530Y134416D01*
X178598Y135348D01*
X179530Y137233D02*
X179530Y140961D01*
X179530Y137233D02*
X175802Y140961D01*
X174870Y140961D01*
X173938Y140029D01*
X173938Y138165D01*
X174870Y137233D01*
X45489Y62323D02*
X44556Y61391D01*
X44556Y59527D01*
X45489Y58595D01*
X49217Y58595D01*
X50149Y59527D01*
X50149Y61391D01*
X49217Y62323D01*
X50149Y67004D02*
X44556Y67004D01*
X47353Y64208D01*
X47353Y67936D01*
X53029Y62323D02*
X52097Y61391D01*
X52097Y59527D01*
X53029Y58595D01*
X56758Y58595D01*
X57690Y59527D01*
X57690Y61391D01*
X56758Y62323D01*
X52097Y64208D02*
X52097Y67936D01*
X52097Y64208D02*
X54893Y64208D01*
X53961Y66072D01*
X53961Y67004D01*
X54893Y67936D01*
X56758Y67936D01*
X57690Y67004D01*
X57690Y65140D01*
X56758Y64208D01*
X44339Y151350D02*
X38746Y151350D01*
X38746Y154146D01*
X39678Y155078D01*
X41543Y155078D01*
X42475Y154146D01*
X42475Y151350D01*
X42475Y153214D02*
X44339Y155078D01*
X40610Y156963D02*
X38746Y158827D01*
X44339Y158827D01*
X44339Y156963D02*
X44339Y160691D01*
X107802Y151747D02*
X113395Y151747D01*
X107802Y151747D02*
X107802Y154543D01*
X108735Y155475D01*
X110599Y155475D01*
X111531Y154543D01*
X111531Y151747D01*
X111531Y153611D02*
X113395Y155475D01*
X113395Y157360D02*
X113395Y161088D01*
X113395Y157360D02*
X109667Y161088D01*
X108735Y161088D01*
X107802Y160156D01*
X107802Y158292D01*
X108735Y157360D01*
X144966Y156623D02*
X150559Y156623D01*
X144966Y156623D02*
X144966Y159419D01*
X145898Y160351D01*
X147762Y160351D01*
X148694Y159419D01*
X148694Y156623D01*
X148694Y158487D02*
X150559Y160351D01*
X145898Y162236D02*
X144966Y163168D01*
X144966Y165032D01*
X145898Y165964D01*
X146830Y165964D01*
X147762Y165032D01*
X147762Y164100D01*
X147762Y165032D02*
X148694Y165964D01*
X149626Y165964D01*
X150559Y165032D01*
X150559Y163168D01*
X149626Y162236D01*
D12*
X149352Y92329D02*
X139446Y92329D01*
X114554Y61087D02*
X88646Y61087D01*
X104648Y148463D02*
X114554Y148463D01*
X104648Y148463D02*
X98552Y148463D01*
X88646Y148463D01*
X98552Y148463D02*
X98554Y148354D01*
X98560Y148246D01*
X98569Y148137D01*
X98583Y148029D01*
X98600Y147922D01*
X98622Y147815D01*
X98647Y147709D01*
X98675Y147604D01*
X98708Y147500D01*
X98744Y147398D01*
X98784Y147297D01*
X98827Y147197D01*
X98874Y147099D01*
X98925Y147002D01*
X98979Y146908D01*
X99036Y146815D01*
X99096Y146725D01*
X99160Y146636D01*
X99227Y146550D01*
X99296Y146467D01*
X99369Y146386D01*
X99445Y146308D01*
X99523Y146232D01*
X99604Y146159D01*
X99687Y146090D01*
X99773Y146023D01*
X99862Y145959D01*
X99952Y145899D01*
X100045Y145842D01*
X100139Y145788D01*
X100236Y145737D01*
X100334Y145690D01*
X100434Y145647D01*
X100535Y145607D01*
X100637Y145571D01*
X100741Y145538D01*
X100846Y145510D01*
X100952Y145485D01*
X101059Y145463D01*
X101166Y145446D01*
X101274Y145432D01*
X101383Y145423D01*
X101491Y145417D01*
X101600Y145415D01*
X101709Y145417D01*
X101817Y145423D01*
X101926Y145432D01*
X102034Y145446D01*
X102141Y145463D01*
X102248Y145485D01*
X102354Y145510D01*
X102459Y145538D01*
X102563Y145571D01*
X102665Y145607D01*
X102766Y145647D01*
X102866Y145690D01*
X102964Y145737D01*
X103061Y145788D01*
X103155Y145842D01*
X103248Y145899D01*
X103338Y145959D01*
X103427Y146023D01*
X103513Y146090D01*
X103596Y146159D01*
X103677Y146232D01*
X103755Y146308D01*
X103831Y146386D01*
X103904Y146467D01*
X103973Y146550D01*
X104040Y146636D01*
X104104Y146725D01*
X104164Y146815D01*
X104221Y146908D01*
X104275Y147002D01*
X104326Y147099D01*
X104373Y147197D01*
X104416Y147297D01*
X104456Y147398D01*
X104492Y147500D01*
X104525Y147604D01*
X104553Y147709D01*
X104578Y147815D01*
X104600Y147922D01*
X104617Y148029D01*
X104631Y148137D01*
X104640Y148246D01*
X104646Y148354D01*
X104648Y148463D01*
D13*
X76926Y149565D02*
X68961Y157531D01*
X76926Y157531D02*
X68961Y149565D01*
X68961Y153548D02*
X76926Y153548D01*
X72944Y149565D02*
X72944Y157531D01*
D14*
X5725Y105750D02*
X5725Y84750D01*
X19225Y124250D02*
X25225Y124250D01*
X38725Y105750D02*
X38725Y84750D01*
X25225Y66250D02*
X19225Y66250D01*
D15*
X24225Y74750D03*
D12*
X144530Y96675D02*
X144530Y112875D01*
X172970Y112875D02*
X172970Y96675D01*
X163970Y96675D02*
X153530Y96675D01*
X163030Y112875D02*
X163970Y112875D01*
X154470Y112875D02*
X153530Y112875D01*
D11*
X174870Y75023D02*
X173938Y74091D01*
X173938Y72227D01*
X174870Y71295D01*
X178598Y71295D01*
X179530Y72227D01*
X179530Y74091D01*
X178598Y75023D01*
X175802Y76908D02*
X173938Y78772D01*
X179530Y78772D01*
X179530Y76908D02*
X179530Y80636D01*
D16*
X47625Y54610D02*
X47625Y50800D01*
D10*
X34925Y54610D02*
X34925Y25400D01*
X34925Y54610D02*
X47625Y54610D01*
D16*
X50165Y54610D01*
D10*
X47625Y54610D02*
X60325Y54610D01*
X136525Y54610D02*
X136525Y25400D01*
X136525Y54610D02*
X60325Y54610D01*
X34925Y25400D02*
X34925Y-3810D01*
D16*
X59055Y-3810D01*
D10*
X136525Y-3810D02*
X136525Y25400D01*
X136525Y-3810D02*
X59055Y-3810D01*
X41275Y-3810D02*
X37465Y-3810D01*
X41275Y-3810D02*
X41275Y2540D01*
X53975Y2540D01*
X53975Y-3810D01*
X66675Y-3810D02*
X66675Y2540D01*
X79375Y2540D01*
X79375Y-3810D01*
X41275Y-3810D01*
X53975Y-3810D02*
X66675Y-3810D01*
X79375Y-3810D02*
X92075Y-3810D01*
X92075Y2540D01*
X104775Y2540D01*
X104775Y-3810D01*
X117475Y-3810D01*
X117475Y2540D01*
X130175Y2540D01*
X130175Y-3810D01*
X136525Y-3810D01*
X47625Y44450D02*
X47625Y54610D01*
X47625Y44450D02*
X50165Y44450D01*
X121285Y44450D01*
X123825Y44450D01*
X123825Y54610D01*
X50165Y39370D02*
X47625Y44450D01*
X50165Y44450D02*
X50165Y54610D01*
X50165Y39370D02*
X121285Y39370D01*
X123825Y44450D01*
X121285Y44450D02*
X121285Y54610D01*
D16*
X47625Y219075D02*
X47625Y222885D01*
D10*
X34925Y222885D02*
X34925Y193675D01*
X34925Y222885D02*
X47625Y222885D01*
D16*
X50165Y222885D01*
D10*
X47625Y222885D02*
X60325Y222885D01*
X136525Y222885D02*
X136525Y193675D01*
X136525Y222885D02*
X60325Y222885D01*
X34925Y193675D02*
X34925Y164465D01*
D16*
X59055Y164465D01*
D10*
X136525Y164465D02*
X136525Y193675D01*
X136525Y164465D02*
X59055Y164465D01*
X41275Y164465D02*
X37465Y164465D01*
X41275Y164465D02*
X41275Y170815D01*
X53975Y170815D01*
X53975Y164465D01*
X66675Y164465D02*
X66675Y170815D01*
X79375Y170815D01*
X79375Y164465D01*
X41275Y164465D01*
X53975Y164465D02*
X66675Y164465D01*
X79375Y164465D02*
X92075Y164465D01*
X92075Y170815D01*
X104775Y170815D01*
X104775Y164465D01*
X117475Y164465D01*
X117475Y170815D01*
X130175Y170815D01*
X130175Y164465D01*
X136525Y164465D01*
X47625Y212725D02*
X47625Y222885D01*
X47625Y212725D02*
X50165Y212725D01*
X121285Y212725D01*
X123825Y212725D01*
X123825Y222885D01*
X50165Y207645D02*
X47625Y212725D01*
X50165Y212725D02*
X50165Y222885D01*
X50165Y207645D02*
X121285Y207645D01*
X123825Y212725D01*
X121285Y212725D02*
X121285Y222885D01*
M02*
