G04 EAGLE Gerber RS-274X export*
G75*
%MOMM*%
%FSLAX34Y34*%
%LPD*%
%INSoldermask Top*%
%IPPOS*%
%AMOC8*
5,1,8,0,0,1.08239X$1,22.5*%
G01*
%ADD10C,0.254000*%
%ADD11R,1.252400X1.152400*%
%ADD12R,1.152400X1.252400*%
%ADD13R,2.133600X0.711200*%
%ADD14R,1.552400X2.052400*%
%ADD15R,0.675000X1.312500*%
%ADD16C,1.676400*%
%ADD17C,0.858000*%


D10*
X144145Y36753D02*
X146687Y34211D01*
X149229Y34211D01*
X151772Y36753D01*
X151772Y49464D01*
X154314Y49464D02*
X149229Y49464D01*
X168143Y49464D02*
X170685Y46921D01*
X168143Y49464D02*
X163059Y49464D01*
X160517Y46921D01*
X160517Y36753D01*
X163059Y34211D01*
X168143Y34211D01*
X170685Y36753D01*
D11*
X150250Y136525D03*
X167250Y136525D03*
X39125Y140891D03*
X56125Y140891D03*
D12*
X53181Y107388D03*
X53181Y124388D03*
X53181Y76431D03*
X53181Y93431D03*
X68825Y161925D03*
X51825Y161925D03*
X83575Y161925D03*
X100575Y161925D03*
X120881Y161925D03*
X137881Y161925D03*
D13*
X76962Y142875D03*
X76962Y130175D03*
X76962Y117475D03*
X76962Y104775D03*
X76962Y92075D03*
X76962Y79375D03*
X76962Y66675D03*
X126238Y66675D03*
X126238Y79375D03*
X126238Y92075D03*
X126238Y104775D03*
X126238Y117475D03*
X126238Y130175D03*
X126238Y142875D03*
D14*
X34225Y73250D03*
X34225Y117250D03*
X10225Y117250D03*
X10225Y73250D03*
D15*
X168250Y116338D03*
X158750Y116338D03*
X149250Y116338D03*
X149250Y93213D03*
X168250Y93213D03*
D11*
X150250Y76200D03*
X167250Y76200D03*
D16*
X47625Y33020D02*
X47625Y17780D01*
X73025Y17780D02*
X73025Y33020D01*
X98425Y33020D02*
X98425Y17780D01*
X123825Y17780D02*
X123825Y33020D01*
X47625Y186055D02*
X47625Y201295D01*
X73025Y201295D02*
X73025Y186055D01*
X98425Y186055D02*
X98425Y201295D01*
X123825Y201295D02*
X123825Y186055D01*
D17*
X150019Y136525D03*
X168275Y76200D03*
X39125Y140891D03*
X53181Y107388D03*
X53181Y75638D03*
X111125Y130175D03*
X19050Y28575D03*
X158750Y25400D03*
X158750Y187325D03*
X19050Y187325D03*
X159147Y93266D03*
X137881Y161925D03*
X56125Y140891D03*
X92075Y130175D03*
X92075Y79375D03*
X95250Y92075D03*
X95250Y66675D03*
M02*
