G04 EAGLE Gerber RS-274X export*
G75*
%MOMM*%
%FSLAX34Y34*%
%LPD*%
%INSoldermask Bottom*%
%IPPOS*%
%AMOC8*
5,1,8,0,0,1.08239X$1,22.5*%
G01*
%ADD10R,1.587500X1.270000*%
%ADD11R,1.905000X1.270000*%
%ADD12C,1.676400*%
%ADD13R,1.422400X1.422400*%
%ADD14C,0.858000*%


D10*
X128588Y130175D03*
X74613Y104775D03*
X74613Y130175D03*
D11*
X76200Y79375D03*
X127000Y79375D03*
X127000Y104775D03*
D12*
X47625Y33020D02*
X47625Y17780D01*
X73025Y17780D02*
X73025Y33020D01*
X98425Y33020D02*
X98425Y17780D01*
X123825Y17780D02*
X123825Y33020D01*
D13*
X114300Y130175D03*
X114300Y104775D03*
X114300Y79375D03*
X88900Y79375D03*
X88900Y104775D03*
X88900Y130175D03*
D12*
X47625Y186055D02*
X47625Y201295D01*
X73025Y201295D02*
X73025Y186055D01*
X98425Y186055D02*
X98425Y201295D01*
X123825Y201295D02*
X123825Y186055D01*
D14*
X150019Y136525D03*
X168275Y76200D03*
X39125Y140891D03*
X53181Y107388D03*
X53181Y75638D03*
X111125Y130175D03*
X19050Y28575D03*
X158750Y25400D03*
X158750Y187325D03*
X19050Y187325D03*
X159147Y93266D03*
X137881Y161925D03*
X56125Y140891D03*
X92075Y130175D03*
X92075Y79375D03*
X95250Y92075D03*
X95250Y66675D03*
M02*
