M48
;GenerationSoftware,Autodesk,EAGLE,9.6.2*%
;CreationDate,2021-01-07T13:34:33Z*%
FMAT,2
ICI,OFF
METRIC,TZ,000.000
T2C0.350
T1C1.016
%
G90
M71
T1
X4763Y2540
X7302Y2540
X9843Y2540
X12382Y2540
X4763Y19368
X7302Y19368
X9843Y19368
X12382Y19368
T2
X15002Y13652
X16828Y7620
X3912Y14089
X5318Y10739
X5318Y7564
X11112Y13017
X1905Y2857
X15875Y2540
X15875Y18733
X1905Y18733
X15915Y9327
X13788Y16192
X5612Y14089
X9208Y13017
X9208Y7937
X9525Y9208
X9525Y6667
M30